<?xml version="1.0" encoding="UTF-8"?>
<!DOCTYPE svg PUBLIC "-//W3C//DTD SVG 1.1//EN" "http://www.w3.org/Graphics/SVG/1.1/DTD/svg11.dtd">
<!-- Creator: CorelDRAW 2019 (64-Bit) -->
<svg xmlns="http://www.w3.org/2000/svg" xml:space="preserve" width="1500mm" height="1800mm" version="1.1" style="shape-rendering:geometricPrecision; text-rendering:geometricPrecision; image-rendering:optimizeQuality; fill-rule:evenodd; clip-rule:evenodd"
viewBox="0 0 150000 180000"
 xmlns:xlink="http://www.w3.org/1999/xlink">
 <defs>
  <style type="text/css">
   <![CDATA[
    .str0 {stroke:#8264B8;stroke-width:1318.49;stroke-miterlimit:4}
    .fil0 {fill:none;fill-rule:nonzero}
    .fil1 {fill:#8264B8;fill-rule:nonzero}
   ]]>
  </style>
 </defs>
 <g id="Слой_x0020_1">
  <metadata id="CorelCorpID_0Corel-Layer"/>
  <line class="fil0 str0" x1="21141.15" y1="68083.78" x2="126613.99" y2= "68083.78" />
  <line class="fil0 str0" x1="21141.15" y1="44982.03" x2="126613.99" y2= "44982.03" />
  <path class="fil1" d="M35037.56 61463.31c18.03,134.24 63.08,393.55 8.97,706.58 -63.09,339.84 -207.4,572.35 -279.55,697.62 -198.32,321.9 -468.9,599.15 -811.53,813.82 -18.03,17.84 -45.04,17.84 -72.15,17.84 -27.01,0 -63.08,-8.87 -90.09,-35.78 -45.15,-35.68 -63.18,-98.36 -36.08,-151.98 72.16,-178.89 108.13,-357.78 108.13,-536.57 0,-196.82 -45.04,-330.97 -90.09,-474.08 -54.11,-151.98 -99.26,-313.03 -81.22,-527.59 27.11,-241.48 153.27,-474.08 369.73,-697.62 45.05,-44.75 108.24,-53.72 153.28,-26.81 18.04,8.87 414.78,214.57 261.51,965.9 -18.04,71.56 -81.13,116.2 -162.35,107.23 -72.05,-17.83 -117.2,-89.39 -108.13,-160.95 63.09,-339.83 0,-518.72 -54.11,-608.12 -117.2,143.11 -189.36,295.09 -207.39,438.21 -18.04,152.08 18.03,268.28 72.15,411.39 45.04,152.08 108.13,313.03 108.13,554.5 0,80.53 -8.97,160.95 -18.04,241.48 162.35,-143.11 297.58,-313.03 414.88,-491.92 72.06,-116.2 189.36,-313.03 243.37,-608.12 54.12,-277.25 18.04,-491.92 -8.97,-617.09 -54.11,-330.87 -180.38,-643.9 -378.7,-930.12 -45.15,-62.59 -27.11,-143.11 36.07,-187.86 63.09,-44.65 144.21,-26.81 189.36,35.78 225.43,348.8 369.73,697.61 432.82,1064.26zm-973.88 -1037.36c-63.08,-35.77 -144.3,-17.93 -189.35,44.65 -252.53,393.56 -595.16,742.36 -991.91,1010.65 -306.55,196.72 -649.18,322 -1009.95,447.17 -450.86,152.08 -910.68,313.03 -1289.39,643.9 -369.74,313.03 -622.17,760.2 -757.51,1314.71 -18.04,53.61 9.07,116.3 63.18,143.11 18.04,8.97 45.05,17.84 63.09,17.84 36.07,0 63.08,-8.87 90.19,-35.78 243.47,-232.51 513.94,-393.46 802.56,-482.95 252.43,-80.43 459.82,-89.4 667.22,-98.37 279.54,-8.87 531.98,-17.83 775.45,-214.66 180.38,-143.01 315.62,-366.65 378.8,-652.87 8.97,-35.68 0,-80.43 -27.11,-116.2 -27,-35.78 -63.08,-53.72 -99.16,-53.72 -216.46,-8.87 -423.85,17.94 -631.24,71.56 -171.31,44.74 -342.63,116.3 -504.97,196.82 -63.09,35.78 -90.1,116.21 -54.12,178.79 36.08,62.69 117.3,89.5 180.38,53.72 135.24,-80.53 288.52,-134.14 441.89,-178.89 117.2,-35.78 243.47,-53.62 369.64,-53.62 -54.11,143.01 -135.24,259.32 -234.4,339.84 -171.31,134.14 -360.67,143.11 -613.2,151.98 -216.36,8.97 -459.83,17.94 -739.38,107.33 -189.35,62.59 -369.73,143.12 -541.05,259.42 126.27,-313.03 306.56,-563.48 531.99,-760.2 342.72,-295.19 757.51,-438.31 1208.37,-590.29 360.66,-125.17 739.37,-250.44 1063.96,-473.98 432.82,-286.22 802.56,-661.83 1073.03,-1082.2 54.12,-71.55 36.08,-151.98 -27.01,-187.76zm757.42 -2423.71c36.07,-8.97 81.22,0 117.3,26.81 81.12,71.55 144.2,152.08 198.32,241.47 171.31,277.25 207.39,617.09 108.23,1001.68 -54.12,223.63 -162.35,429.33 -315.62,617.09 -27.01,26.81 -63.09,53.71 -108.23,53.71 -1298.47,-26.9 -1659.13,-894.34 -1767.36,-1359.45 -54.12,-17.84 -99.16,-35.78 -135.24,-71.56 -396.75,232.61 -910.69,724.43 -658.25,1690.33 162.34,53.71 333.66,80.52 504.97,71.55 324.59,-17.84 577.13,-125.17 748.44,-313.03 54.12,-62.58 99.17,-125.17 135.24,-196.72 36.08,-62.59 108.23,-98.37 180.39,-62.59 63.08,35.78 99.16,107.33 63.08,178.79 -45.15,98.46 -108.23,187.86 -171.31,259.41 -216.46,241.48 -532.09,375.62 -937.8,402.43 -27.11,0 -63.18,0 -90.19,0 -198.42,0 -405.81,-35.78 -595.17,-116.21 -36.07,-17.93 -72.15,-44.74 -81.12,-89.49 -99.16,-357.68 -117.2,-661.84 -72.15,-921.15 -27.01,26.81 -63.09,44.74 -99.16,44.74 -9.07,0 -9.07,0 -18.04,0 -108.23,-8.96 -207.39,-35.77 -306.55,-80.52 -297.59,-125.17 -532.09,-384.59 -676.29,-751.23 -90.2,-214.67 -126.27,-447.17 -108.23,-679.68 0,-44.75 27,-80.52 63.08,-98.46 288.61,-196.73 550.02,-295.09 802.56,-348.71 -18.04,-17.94 -36.08,-44.75 -36.08,-62.69 -27.01,-107.23 -36.08,-205.69 -27.01,-312.93 18.04,-322 180.29,-626.06 486.84,-894.34 171.41,-152.08 378.81,-268.38 613.2,-330.97 36.08,-8.97 81.13,0 117.2,17.94 1046.03,751.23 856.68,1672.38 676.29,2110.59 36.08,44.74 63.19,98.36 72.16,152.08 459.92,44.74 1163.22,-62.59 1532.96,-992.71 -99.16,-143.11 -225.43,-259.42 -369.74,-357.78 -108.23,-62.59 -423.75,-259.31 -793.49,-178.89 -72.15,17.94 -153.27,44.75 -225.43,89.5 -63.08,35.77 -144.3,8.87 -180.38,-53.72 -36.08,-62.59 -8.97,-143.11 54.11,-178.79 90.2,-53.72 189.36,-89.49 297.59,-116.3 315.62,-71.56 649.28,0 991.91,214.67 198.32,125.17 360.66,286.12 495.9,491.81 18.04,35.78 27.11,80.53 9.07,116.31 -135.24,348.8 -306.65,608.12 -496,787.01zm-1713.25 313.03c18.04,17.84 45.15,17.84 63.09,17.84 9.06,0 36.07,-8.87 45.14,-26.81 8.97,-8.97 18.04,-17.84 18.04,-35.78 8.97,-17.84 0,-53.62 -27.11,-71.56 0,0 -8.97,-8.86 -18.04,-8.86 -27,-17.94 -63.08,-8.97 -81.12,8.86 0,0 -8.97,8.97 -8.97,8.97 -18.04,17.94 -27.11,53.72 -9.07,80.53 0,8.97 9.07,17.84 18.04,26.81zm-1298.46 -840.73c568.06,-35.78 991.91,250.44 1226.31,456.14 45.14,-17.84 90.19,-26.81 144.3,-17.84 171.32,-420.36 261.51,-1126.95 -541.05,-1735.07 -171.31,53.72 -315.62,143.11 -441.79,259.42 -243.46,214.56 -378.8,456.04 -396.84,706.48 0,80.53 0,152.08 18.04,232.51 18.04,35.77 9.07,71.55 -8.97,98.36zm1000.88 795.98c0,-53.62 9.07,-98.36 27.11,-151.98 -342.73,-304.06 -982.94,-626.06 -1830.55,-89.49 0,178.88 27.11,339.83 90.19,500.88 126.27,304.06 306.56,509.76 531.99,608.13 72.15,26.8 153.37,53.71 234.49,62.58 54.12,8.97 99.17,44.75 108.23,89.5 153.28,-554.51 558.99,-867.54 838.54,-1019.62zm1911.67 -169.92c-351.7,286.22 -748.45,357.78 -1064.07,357.78 -81.12,0 -153.27,-8.97 -216.36,-8.97 -9.07,17.94 -18.04,26.81 -27.11,35.78 -27,26.8 -54.01,44.74 -81.12,62.58 99.16,447.17 423.85,1073.23 1433.7,1126.85 108.23,-143.01 180.38,-295.09 216.46,-456.04 81.12,-322 54.12,-590.28 -81.12,-804.95 -45.15,-71.55 -90.19,-125.17 -153.28,-178.89 -36.07,-35.78 -45.14,-89.39 -27.1,-134.14zm-4725.06 1278.93c-432.82,196.73 -883.68,295.09 -1352.57,304.06 -8.97,0 -8.97,0 -18.04,0 -468.9,0 -928.73,-98.36 -1361.55,-295.09 -36.08,-17.94 -63.08,-53.72 -72.15,-89.49 -8.97,-35.78 0,-80.43 27.1,-116.21l225.43 -304.06c117.2,-152.08 261.41,-250.44 423.76,-304.16 36.07,-8.87 90.19,-26.81 171.31,-26.81 189.35,-17.84 297.58,17.94 396.74,53.72 63.19,17.84 117.3,35.78 207.4,44.65 81.22,0 135.33,-17.84 207.39,-35.78 99.26,-26.81 207.39,-62.59 387.77,-44.65 81.12,8.87 144.31,26.81 216.46,53.62 135.24,53.71 261.51,152.08 360.67,277.25l234.4 295.09c27.11,35.78 36.08,71.56 27.11,116.3 -18.04,17.94 -45.15,53.72 -81.23,71.56zm-270.47 -178.89l-126.27 -160.95c-72.15,-89.39 -153.28,-152.08 -243.47,-187.86 -45.04,-17.84 -90.09,-26.8 -144.21,-35.77 -135.33,-8.87 -198.42,8.97 -279.54,35.77 -72.15,26.91 -162.35,44.75 -288.61,44.75 -126.17,0 -207.4,-26.81 -279.45,-53.62 -81.22,-26.9 -153.37,-53.71 -288.61,-35.77 -54.12,8.87 -90.19,8.87 -117.2,17.84 -108.23,35.77 -207.39,107.33 -288.52,205.69l-126.26 161.05c351.69,143.01 721.33,205.7 1091.07,205.7 0,0 8.97,0 8.97,0 369.73,8.87 730.4,-62.69 1082.1,-196.83zm-162.35 742.36l-270.47 214.57c-81.13,44.75 -180.39,80.53 -279.55,98.46 -36.07,8.87 -81.12,8.87 -126.27,8.87l-495.9 0c-18.04,0 -45.05,0 -63.09,0 -99.26,-8.87 -198.42,-35.77 -288.61,-80.42l-315.62 -241.48c-63.08,-44.74 -144.21,-35.77 -189.35,26.81 -45.05,62.59 -36.08,143.11 27.1,187.76l324.59 250.45c9.07,8.96 18.04,8.96 18.04,8.96 126.27,62.59 261.51,98.37 396.75,116.31 27.1,0 63.18,0 90.19,0l495.9 0c54.12,0 108.23,0 162.35,-8.97 135.24,-17.94 261.51,-62.59 378.7,-134.14 9.07,0 9.07,-8.97 18.04,-8.97l279.55 -223.64c54.11,-44.65 72.15,-134.14 18.04,-187.76 -36.08,-62.58 -126.27,-71.55 -180.39,-26.81zm-1812.4 -3058.64c-72.16,17.84 -117.2,89.39 -99.16,160.95 27,116.3 99.16,160.95 234.39,250.44 45.05,26.81 90.2,62.59 153.28,98.37 144.31,98.36 342.63,151.98 550.12,151.98 198.32,0 396.74,-53.62 540.95,-151.98 63.19,-44.75 108.23,-71.56 153.28,-98.37 135.34,-89.49 207.49,-134.14 234.5,-250.44 18.04,-71.56 -27.01,-143.11 -99.16,-160.95 -72.16,-17.94 -144.31,26.81 -162.35,98.36 -8.97,17.84 -63.08,53.62 -126.27,89.4 -45.04,26.8 -90.09,62.58 -153.27,107.33 -198.33,134.14 -586.1,134.14 -784.52,0 -63.09,-44.75 -117.2,-80.53 -153.28,-107.33 -54.11,-35.78 -117.2,-71.56 -126.27,-89.4 -17.94,-71.55 -90.09,-116.3 -162.24,-98.36zm-2723.2 -1887.15c-27.1,71.55 8.97,143.11 81.13,170.02 18.03,8.87 36.07,8.87 45.14,8.87 54.02,0 108.13,-35.78 126.17,-89.4 63.18,-152.08 243.47,-214.67 342.73,-232.5 35.98,8.87 72.05,17.83 117.2,26.8 135.24,26.81 261.51,35.78 360.67,35.78 81.12,0 153.27,-8.97 198.42,-8.97 135.24,-8.97 234.4,-35.78 703.29,-160.95 162.35,-44.74 297.59,-80.52 387.78,-107.33 72.05,-17.94 117.2,-98.36 90.09,-169.92 -18.04,-71.56 -99.16,-116.3 -171.31,-89.49 -99.16,26.9 -234.4,62.68 -387.68,107.33 -459.93,125.27 -541.05,143.11 -649.28,152.08 -81.12,8.97 -261.51,26.81 -468.9,-26.81 -216.36,-44.75 -414.78,-152.08 -595.16,-304.16 -81.13,-62.59 -252.44,-169.92 -495.91,-160.95 -216.46,0 -378.7,98.36 -450.86,160.95 -63.08,44.75 -72.15,125.27 -27,187.86 45.04,62.58 126.16,71.55 189.35,26.81 45.04,-35.78 153.27,-98.37 297.48,-107.34 162.35,0 279.55,71.56 315.62,107.34 81.23,71.55 162.35,125.27 252.54,178.89 -117.3,71.55 -216.46,160.95 -261.51,295.09zm7394.13 -572.35c144.21,0 243.47,62.59 297.49,107.34 63.18,44.74 144.3,35.77 189.45,-26.81 45.05,-62.59 35.98,-143.11 -27.11,-187.86 -72.15,-53.62 -234.4,-151.98 -450.86,-160.95 -243.47,-8.97 -414.78,98.36 -495.9,169.92 -180.39,152.08 -378.71,250.44 -595.17,304.06 -207.39,44.75 -387.77,35.78 -468.9,26.81 -108.23,-8.87 -189.35,-26.81 -649.28,-151.98 -162.24,-44.75 -288.51,-80.53 -387.67,-107.34 -72.16,-17.93 -144.31,17.84 -171.32,89.4 -18.03,71.55 18.04,143.11 90.1,169.92 99.26,26.91 234.49,62.68 387.77,107.33 459.93,125.27 568.06,152.08 703.4,161.05 45.04,0 108.13,8.87 198.32,8.87 99.16,0 225.43,-8.87 360.67,-35.78 36.07,-8.87 72.15,-17.84 117.3,-26.81 99.16,17.94 279.44,80.53 342.62,232.51 18.04,53.72 72.16,89.49 126.27,89.49 18.04,0 35.98,0 45.05,-8.96 72.15,-26.81 108.23,-107.34 81.12,-169.92 -54.11,-134.15 -153.27,-223.64 -252.44,-286.23 90.2,-53.61 171.32,-107.33 243.47,-178.88 36.08,-44.65 153.28,-125.18 315.62,-125.18zm-595.16 6340.93c54.11,-53.71 63.08,-134.14 8.97,-187.86 -54.02,-53.61 -135.24,-62.58 -189.36,-8.96l-631.14 563.47c-423.85,357.78 -892.75,724.42 -1388.65,1064.26 -640.22,447.17 -1433.8,447.17 -2074.02,0 -1262.38,-885.37 -3444.52,-2620.44 -3913.42,-4373.35 -288.61,-1064.26 -468.9,-2316.29 -504.97,-3434.26l18.03 -44.75c468.9,-1278.83 946.77,-2593.54 2984.7,-4239.11 288.52,-232.61 820.6,-581.32 1686.24,-903.32 72.15,-26.81 108.13,-107.33 81.12,-169.92 -27,-71.55 -108.23,-107.33 -171.31,-80.52 -712.37,268.28 -1325.57,590.28 -1767.36,948.06 -2092.05,1690.32 -2587.96,3049.68 -3065.92,4355.41l-27.01 62.59c-108.23,250.44 -306.55,456.14 -523.01,661.84 -126.27,125.17 -261.51,259.31 -369.74,411.39 -586.1,760.2 -595.07,1904.99 -27.01,2674.06 54.12,71.56 117.2,143.11 171.32,214.67 108.23,134.14 216.46,250.44 279.54,393.55 144.31,295.1 126.27,652.87 -54.11,930.13 -45.05,62.58 -27.01,143.01 36.07,187.75 27.11,17.94 45.05,17.94 72.16,17.94 45.04,0 90.19,-17.94 117.2,-62.68 225.43,-348.71 252.53,-813.82 72.15,-1189.44 -81.12,-169.92 -207.39,-313.03 -315.62,-447.17 -54.12,-71.56 -117.2,-134.14 -162.25,-205.7 -504.97,-679.67 -496,-1690.32 27.01,-2352.16 99.16,-134.14 225.43,-250.34 351.7,-384.58 117.2,-116.21 234.4,-232.51 342.63,-366.65 63.08,1028.48 243.47,2137.49 495.9,3094.42 496.01,1833.44 2732.26,3622.12 4021.76,4525.44 369.63,259.31 784.42,384.48 1190.23,384.48 405.81,0 829.56,-125.17 1199.3,-384.48 504.98,-348.81 973.87,-715.56 1415.66,-1082.2l613.21 -572.35zm-7024.4 -8183.23c8.97,0 847.61,-125.27 1505.86,0 622.17,116.2 901.72,465.01 910.78,473.98 27.01,35.78 63.09,53.62 108.14,53.62 27.1,0 54.11,-8.87 81.22,-26.81 63.08,-44.75 72.05,-125.17 27.01,-187.76 -8.97,-17.94 -333.66,-438.3 -1073.04,-572.44 -712.36,-134.15 -1559.97,-8.97 -1596.04,0 -72.16,8.97 -126.27,80.52 -117.2,152.08 8.97,62.58 72.05,116.2 153.27,107.33zm5653.78 -8.97c667.22,-125.17 1496.89,0 1505.86,0 72.15,8.97 144.3,-35.78 153.27,-116.3 9.07,-71.56 -36.08,-143.11 -117.2,-151.98 -36.07,-8.97 -892.75,-134.14 -1596.04,0 -739.38,143.11 -1064.07,554.5 -1073.04,572.34 -45.14,62.59 -36.07,143.11 27.01,187.86 27.11,17.84 54.12,26.81 81.22,26.81 45.05,0 81.13,-17.94 108.13,-53.72 9.07,0 279.55,-348.71 910.79,-465.01zm-2173.17 -4078.26l216.46 116.3c694.33,375.62 1424.73,769.17 2082.98,1207.37 1586.98,1055.3 2696.09,2522.08 3471.64,4605.86 -9.07,196.73 -18.04,402.43 -36.08,608.12l-54.12 831.76c-9.07,71.56 54.12,134.14 126.17,143.11 0,0 9.07,0 9.07,0 72.16,0 126.27,-53.61 135.24,-125.17l54.11 -831.76c18.04,-214.66 27.01,-438.2 36.08,-643.9 0,0 0,-8.97 0,-8.97 0,-8.96 0,-8.96 0,-17.93 0,-8.87 0,-8.87 0,-17.84 0,0 0,-8.97 0,-8.97 -802.56,-2155.34 -1938.67,-3666.77 -3588.83,-4757.84 -676.29,-447.17 -1406.7,-840.73 -2110.09,-1216.35l-216.36 -116.3c-63.09,-35.78 -144.31,-8.87 -180.39,53.72 -36.07,62.58 -8.97,143.11 54.12,178.79z"/>
  <path class="fil1" d="M124688.37 58635.77c-376.92,-578.92 -753.73,-1180.07 -1152.76,-2271.04 -864.55,-2360.03 864.54,-5232.12 886.67,-5254.34 66.57,-111.32 22.22,-244.96 -66.48,-311.73 -110.82,-66.78 -243.86,-22.33 -310.34,66.77 -66.47,133.64 -1862.13,3072.5 -931.01,5632.95 221.64,645.69 465.5,1113.19 687.15,1514.02 -509.86,378.41 -2682.24,2003.75 -3945.82,2003.75 -1285.8,0 -3436.05,-1603.02 -3945.91,-2003.75 221.74,-400.83 443.38,-868.33 687.25,-1514.02 931.02,-2560.45 -842.42,-5521.63 -931.12,-5632.95 -66.47,-111.32 -199.52,-133.55 -310.34,-66.77 -110.82,66.77 -132.94,200.41 -66.47,311.73 22.12,22.22 1729.09,2894.31 886.67,5254.34 -398.94,1068.75 -775.85,1669.9 -1152.66,2271.04 -487.73,757.01 -953.24,1469.48 -1330.06,3094.73 -155.17,668.01 -177.39,2137.39 -177.39,2204.26 0,133.55 88.7,222.64 221.64,222.64 110.92,0 221.74,-89.09 221.74,-222.64 0,-22.32 22.13,-1491.8 155.17,-2115.17 376.82,-1536.25 820.2,-2226.49 1285.71,-2961.18 88.7,-155.87 199.52,-289.41 288.22,-445.28 598.55,467.51 2770.93,2048.3 4167.55,2048.3 1396.53,0 3569.01,-1580.79 4167.56,-2048.3 88.6,155.87 199.52,311.74 288.11,445.28 465.51,734.69 908.9,1424.93 1285.81,2961.18 155.17,601.15 155.17,2092.85 155.17,2115.17 0,111.32 110.82,222.64 221.64,222.64 133.05,0 221.65,-111.32 221.65,-222.64 0,-66.87 -22.13,-1536.25 -177.3,-2204.26 -376.91,-1603.03 -842.42,-2337.72 -1330.05,-3094.73z"/>
  <path class="fil1" d="M119855.78 57121.75c110.82,0 177.3,-89 177.3,-178.1 0,-89.09 -88.7,-178.09 -177.3,-178.09 -110.82,0 -177.39,89 -177.39,178.09 0,89.1 66.57,178.1 177.39,178.1z"/>
  <path class="fil1" d="M120653.76 62843.79c-66.48,44.55 -509.86,311.64 -797.98,667.92 -288.21,-356.28 -731.6,-623.37 -798.07,-667.92 -110.82,-66.77 -243.87,-22.32 -310.34,66.77 -66.47,111.32 -22.12,244.87 66.47,311.74 177.4,111.32 709.38,489.82 820.2,801.46 22.22,89.09 110.92,155.87 199.52,155.87 88.7,0 177.39,-66.78 199.52,-155.87 110.82,-311.64 620.68,-667.92 820.19,-801.46 110.92,-66.87 133.05,-200.42 66.58,-311.74 -44.35,-89.09 -177.4,-133.54 -266.09,-66.77z"/>
  <path class="fil1" d="M114513.34 55451.95l-687.25 690.14c-88.7,89.1 -88.7,222.64 0,311.74 44.35,44.55 110.82,66.77 155.17,66.77 66.57,0 110.82,-22.22 155.17,-66.77l1174.88 -1179.97c0,0 22.23,-22.32 22.23,-44.55 22.12,-22.32 22.12,-44.54 22.12,-89.09 0,0 0,-22.23 0,-22.23 0,-22.32 0,-66.77 -22.12,-89.09 0,-22.23 0,-22.23 -22.23,-44.55 -22.12,-22.22 -44.25,-66.77 -66.47,-88.99l-1219.23 -757.02c-110.82,-66.77 -243.87,-22.32 -310.34,66.77 -22.13,44.55 -22.13,66.78 -22.13,111.32 0,66.78 44.25,155.87 110.83,200.42l775.84 467.5c-1174.88,155.87 -2416.24,-111.32 -2438.46,-111.32 -110.82,-22.22 -243.87,44.55 -265.99,178.19 -22.23,111.32 44.34,244.87 177.29,267.09 66.57,0 1241.46,267.19 2460.69,133.64z"/>
  <path class="fil1" d="M127836.21 55051.22c-22.23,-111.42 -155.27,-200.41 -266.09,-178.19 -22.13,0 -1241.36,267.19 -2438.47,111.32l775.95 -467.5c66.47,-44.55 110.82,-111.32 110.82,-200.42 0,-44.54 0,-89.09 -22.22,-111.32 -66.48,-111.32 -199.52,-133.54 -310.34,-66.77l-1263.58 757.02c-44.25,22.22 -66.48,44.44 -88.6,88.99 0,0 0,22.32 -22.23,22.32 0,22.23 -22.12,66.78 -22.12,89 0,0 0,0 0,22.32 0,44.55 22.12,66.78 44.35,89 0,0 22.12,22.32 22.12,22.32l1174.89 1179.97c44.35,44.55 110.82,66.87 155.17,66.87 66.57,0 110.82,-22.32 155.17,-66.87 88.69,-88.99 88.69,-222.64 0,-311.63l-687.15 -690.24c1219.23,133.54 2416.24,-111.32 2482.81,-133.55 155.17,0 221.64,-111.32 199.52,-222.64z"/>
  <path class="fil1" d="M46700.1 59515.86c-758.51,713.86 -1658.23,1070.74 -2699.28,1070.74 -579.91,0 -1092.96,-100.35 -1539.14,-301.17 -446.17,-200.81 -818,-468.49 -1115.38,-803.05 -297.49,-334.66 -522.42,-721.34 -674.8,-1160.04 -152.48,-438.6 -228.72,-896.03 -228.72,-1371.91 0,-505.67 79.93,-968.49 239.78,-1388.55 159.96,-420.17 384.79,-782.73 674.8,-1087.59 290.01,-304.85 633.93,-542.74 1031.77,-713.76 397.84,-171.01 830.96,-256.52 1299.36,-256.52 319.71,0 611.61,37.07 875.61,111.52 263.9,74.34 498.2,171.01 702.7,289.91 204.5,118.99 371.83,254.73 501.98,407.11 130.06,152.48 221.15,306.75 273.17,462.91l825.38 0c-111.52,-252.83 -254.63,-487.03 -429.44,-702.69 -174.7,-215.67 -392.25,-401.53 -652.47,-557.7 -260.31,-156.06 -565.16,-278.84 -914.57,-368.04 -349.51,-89.19 -747.35,-133.84 -1193.42,-133.84 -646.99,0 -1236.28,92.88 -1767.86,278.84 -531.68,185.87 -987.23,451.76 -1366.33,797.48 -379.3,345.82 -673,762.19 -881.19,1249.23 -208.29,487.04 -312.33,1031.67 -312.33,1634.02 0,520.52 83.61,1027.98 250.94,1522.39 167.33,494.51 425.65,933.31 775.15,1316.2 349.51,383 795.68,691.64 1338.53,925.84 542.74,234.2 1189.63,351.3 1940.67,351.3 475.97,0 901.61,-44.65 1277.13,-133.84 375.52,-89.2 702.7,-198.92 981.55,-329.08 278.84,-130.15 511.25,-269.58 697.11,-418.27 185.87,-148.69 327.19,-278.85 423.86,-390.36l-334.56 -301.08z"/>
  <path class="fil1" d="M54819.55 58177.34c0,386.68 -66.87,756.71 -200.81,1109.81 -133.85,353.19 -325.29,663.73 -574.34,931.31 -249.15,267.69 -550.32,479.66 -903.51,635.83 -353.2,156.07 -749.24,234.2 -1187.84,234.2 -446.18,0 -849.6,-79.93 -1210.27,-239.78 -360.57,-159.95 -665.42,-373.72 -914.57,-641.31 -249.05,-267.68 -442.39,-578.22 -580.02,-931.42 -137.53,-353.19 -206.29,-719.44 -206.29,-1098.64 0,-386.58 68.76,-756.62 206.29,-1109.81 137.63,-353.09 330.97,-663.63 580.02,-931.32 249.15,-267.58 554,-481.45 914.57,-641.3 360.67,-159.96 764.09,-239.78 1210.27,-239.78 438.6,0 834.64,79.82 1187.84,239.78 353.19,159.85 654.36,373.72 903.51,641.3 249.05,267.69 440.49,578.23 574.34,931.32 133.94,353.19 200.81,723.23 200.81,1109.81zm-1059.68 0c0,-520.52 -55.71,-942.48 -167.23,-1265.88 -111.52,-323.49 -256.52,-574.43 -435.01,-752.92 -178.49,-178.39 -375.52,-299.28 -591.08,-362.56 -215.66,-63.09 -423.95,-94.78 -624.67,-94.78 -200.81,0 -408.9,31.69 -624.56,94.78 -215.66,63.28 -414.58,184.17 -596.76,362.56 -182.18,178.49 -330.87,429.43 -446.18,752.92 -115.2,323.4 -172.91,745.36 -172.91,1265.88 0,513.14 57.71,931.42 172.91,1254.81 115.31,323.49 264,574.44 446.18,752.83 182.18,178.49 381.1,299.37 596.76,362.56 215.66,63.18 423.75,94.87 624.56,94.87 200.72,0 409.01,-31.69 624.67,-94.87 215.56,-63.19 412.59,-184.07 591.08,-362.56 178.49,-178.39 323.49,-429.34 435.01,-752.83 111.52,-323.39 167.23,-741.67 167.23,-1254.81z"/>
  <path class="fil1" d="M61054.14 56649.26c0,-200.71 -52.02,-386.58 -156.16,-557.59 -104.15,-171.02 -247.36,-317.92 -429.54,-440.7 -182.07,-122.58 -394.05,-219.35 -635.62,-290.01 -241.68,-70.56 -500.19,-105.83 -775.25,-105.83 -260.21,0 -503.78,33.48 -730.51,100.35 -226.82,66.87 -423.85,167.23 -591.18,301.17 -167.33,133.85 -299.37,299.28 -395.94,496.31 -96.67,197.02 -145.01,425.74 -145.01,685.95 0,356.88 81.72,639.52 245.36,847.71 163.64,208.18 368.15,375.51 613.51,501.88 245.36,126.37 511.15,228.62 797.47,306.75 286.22,78.14 552.11,163.64 797.48,256.53 245.36,92.88 449.86,210.08 613.4,351.29 163.64,141.32 245.46,334.66 245.46,580.02 0,104.15 -16.74,211.98 -50.23,323.5 -33.48,111.52 -94.77,213.77 -184.07,306.65 -89.19,92.98 -211.87,171.11 -368.04,234.3 -156.17,63.18 -353.19,94.87 -591.18,94.87 -297.38,0 -548.33,-46.54 -752.83,-139.52 -204.5,-92.88 -371.83,-204.5 -501.98,-334.66 -130.06,-130.05 -223.04,-262 -278.85,-395.84 -55.71,-133.94 -83.61,-245.46 -83.61,-334.66l-725.03 0c0,208.19 48.34,410.9 145.01,607.92 96.67,197.03 243.47,373.63 440.59,529.79 197.03,156.07 438.7,280.74 725.03,373.63 286.32,92.98 619.08,139.42 998.18,139.42 684.17,0 1199.11,-150.59 1544.82,-451.76 345.82,-301.07 518.73,-697.11 518.73,-1187.84 0,-356.88 -83.71,-643.2 -251.04,-858.86 -167.33,-215.66 -377.41,-388.47 -630.15,-518.63 -252.83,-130.15 -526.1,-236.09 -819.8,-317.91 -293.79,-81.72 -567.06,-167.23 -819.79,-256.53 -252.84,-89.19 -462.92,-197.02 -630.15,-323.39 -167.43,-126.37 -251.04,-304.86 -251.04,-535.37 0,-96.67 18.63,-198.92 55.81,-306.75 37.07,-107.93 100.35,-208.29 189.55,-301.17 89.29,-92.89 208.29,-171.02 356.98,-234.3 148.69,-63.09 334.56,-94.78 557.59,-94.78 223.14,0 416.48,31.69 580.02,94.78 163.64,63.28 301.17,141.41 412.79,234.3 111.52,92.88 193.24,195.13 245.36,306.65 52.02,111.62 78.04,215.76 78.04,312.33l635.82 0z"/>
  <path class="fil1" d="M65024.57 60954.65l0 -3178.84c0,-133.84 11.17,-310.34 33.49,-529.79 22.32,-219.35 79.93,-435.01 172.91,-646.89 92.88,-211.87 236.09,-394.15 429.43,-546.53 193.34,-152.38 464.71,-228.62 814.22,-228.62 252.83,0 447.97,55.71 585.6,167.23 137.53,111.52 239.78,249.05 306.65,412.69 66.87,163.64 106.04,334.66 117.1,513.05 11.16,178.49 16.74,334.65 16.74,468.5l0 3569.2 948.06 0 0 -3178.84c0,-163.54 14.95,-358.77 44.65,-585.6 29.8,-226.72 92.98,-440.49 189.65,-641.31 96.67,-200.71 236.09,-371.73 418.27,-513.04 182.18,-141.22 429.43,-211.88 741.67,-211.88 230.51,0 416.37,33.49 557.79,100.36 141.22,66.87 250.84,167.33 328.98,301.17 78.13,133.84 130.15,297.38 156.16,490.72 26.01,193.34 38.97,416.38 38.97,669.22l0 3569.2 948.06 0 0 -3892.7c0,-171.01 -18.54,-362.46 -55.71,-574.44 -37.17,-211.87 -117.1,-409 -239.78,-591.08 -122.68,-182.17 -301.17,-334.65 -535.37,-457.33 -234.3,-122.68 -544.74,-183.97 -931.32,-183.97 -111.62,0 -241.77,11.06 -390.46,33.38 -148.7,22.33 -304.86,70.66 -468.5,145.01 -163.54,74.34 -321.6,182.17 -473.98,323.49 -152.38,141.22 -284.43,327.18 -395.95,557.69l-78.13 0c-44.55,-118.99 -107.74,-239.78 -189.56,-362.56 -81.82,-122.68 -185.96,-235.99 -312.33,-340.13 -126.37,-104.15 -276.95,-189.66 -451.65,-256.53 -174.81,-66.87 -384.89,-100.35 -630.25,-100.35 -111.52,0 -245.36,12.95 -401.53,38.96 -156.17,26.11 -312.33,76.24 -468.4,150.59 -156.16,74.44 -303.06,178.49 -440.59,312.33 -137.63,133.84 -250.94,308.65 -340.24,524.21l-44.65 0 0 -903.41 -948.06 0 0 5576.84 948.06 0z"/>
  <path class="fil1" d="M80326.98 58177.34c0,386.68 -66.88,756.71 -200.82,1109.81 -133.84,353.19 -325.29,663.73 -574.34,931.31 -249.14,267.69 -550.31,479.66 -903.51,635.83 -353.19,156.07 -749.24,234.2 -1187.84,234.2 -446.17,0 -849.59,-79.93 -1210.26,-239.78 -360.57,-159.95 -665.43,-373.72 -914.58,-641.31 -249.04,-267.68 -442.38,-578.22 -580.01,-931.42 -137.53,-353.19 -206.3,-719.44 -206.3,-1098.64 0,-386.58 68.77,-756.62 206.3,-1109.81 137.63,-353.09 330.97,-663.63 580.01,-931.32 249.15,-267.58 554.01,-481.45 914.58,-641.3 360.67,-159.96 764.09,-239.78 1210.26,-239.78 438.6,0 834.65,79.82 1187.84,239.78 353.2,159.85 654.37,373.72 903.51,641.3 249.05,267.69 440.5,578.23 574.34,931.32 133.94,353.19 200.82,723.23 200.82,1109.81zm-1059.68 0c0,-520.52 -55.71,-942.48 -167.23,-1265.88 -111.52,-323.49 -256.52,-574.43 -435.01,-752.92 -178.49,-178.39 -375.52,-299.28 -591.08,-362.56 -215.67,-63.09 -423.96,-94.78 -624.67,-94.78 -200.81,0 -408.9,31.69 -624.56,94.78 -215.67,63.28 -414.59,184.17 -596.77,362.56 -182.17,178.49 -330.86,429.43 -446.17,752.92 -115.21,323.4 -172.91,745.36 -172.91,1265.88 0,513.14 57.7,931.42 172.91,1254.81 115.31,323.49 264,574.44 446.17,752.83 182.18,178.49 381.1,299.37 596.77,362.56 215.66,63.18 423.75,94.87 624.56,94.87 200.71,0 409,-31.69 624.67,-94.87 215.56,-63.19 412.59,-184.07 591.08,-362.56 178.49,-178.39 323.49,-429.34 435.01,-752.83 111.52,-323.39 167.23,-741.67 167.23,-1254.81z"/>
  <path class="fil1" d="M82523.97 58980.39c14.85,319.81 98.56,609.82 250.94,870.03 152.38,260.31 360.67,481.55 624.66,663.73 263.9,182.08 574.44,323.4 931.32,423.75 356.88,100.36 747.25,150.59 1171.1,150.59 431.23,0 819.8,-52.12 1165.52,-156.17 345.81,-104.14 641.4,-252.83 886.77,-446.17 245.46,-193.24 435.01,-427.54 568.85,-702.7 133.84,-275.06 200.72,-579.92 200.72,-914.57 0,-461.03 -115.21,-838.34 -345.72,-1132.14 -230.51,-293.69 -518.63,-539.05 -864.45,-736.18 -345.72,-197.03 -721.23,-362.36 -1126.45,-496.3 -405.31,-133.85 -780.83,-275.06 -1126.55,-423.85 -345.82,-148.7 -633.93,-319.71 -864.44,-513.05 -230.52,-193.34 -345.72,-449.86 -345.72,-769.57 0,-178.49 38.96,-345.82 117.1,-501.99 78.13,-156.16 193.34,-291.8 345.72,-407 152.47,-115.31 340.23,-208.29 563.27,-278.95 223.04,-70.56 479.56,-105.84 769.57,-105.84 483.45,0 894.24,102.25 1232.59,306.65 338.24,204.5 537.16,526.1 596.66,964.8l758.41 0c-44.55,-275.15 -144.91,-522.31 -301.07,-741.66 -156.07,-219.45 -353.2,-405.32 -591.08,-557.69 -237.99,-152.38 -507.57,-267.69 -808.74,-345.82 -301.07,-78.04 -615.3,-117.1 -942.48,-117.1 -342.03,0 -667.32,44.65 -975.96,133.84 -308.65,89.2 -580.02,219.35 -814.22,390.37 -234.2,171.11 -420.07,386.67 -557.6,646.89 -137.63,260.31 -206.39,557.69 -206.39,892.35 0,438.7 111.52,791.99 334.66,1059.57 223.03,267.69 503.67,490.83 842.02,669.22 338.34,178.49 704.59,330.87 1098.64,457.33 394.06,126.37 760.31,269.48 1098.65,429.34 338.34,159.95 618.98,355.18 842.12,585.7 223.04,230.51 334.56,539.05 334.56,925.73 0,483.35 -176.6,836.44 -529.79,1059.58 -353.19,223.14 -823.49,334.66 -1410.98,334.66 -468.4,0 -843.92,-61.39 -1126.45,-184.07 -282.63,-122.69 -498.2,-269.58 -646.89,-440.6 -148.79,-171.01 -249.15,-347.61 -301.17,-529.79 -52.12,-182.18 -81.82,-336.45 -89.19,-462.92l-758.51 0z"/>
  <polygon class="fil1" points="92372.31,53147.03 91424.15,53147.03 91424.15,60954.65 92372.31,60954.65 "/>
  <path class="fil1" d="M95963.74 55377.81l0 5576.84 948.06 0 0 -5576.84 -948.06 0zm-133.95 -1762.28c0,163.54 59.5,304.86 178.49,423.75 119,118.99 260.31,178.49 423.95,178.49 163.55,0 304.86,-59.5 423.86,-178.49 118.89,-118.89 178.39,-260.21 178.39,-423.75 0,-163.64 -59.5,-304.96 -178.39,-423.95 -119,-118.9 -260.31,-178.39 -423.86,-178.39 -163.64,0 -304.95,59.49 -423.95,178.39 -118.99,118.99 -178.49,260.31 -178.49,423.95z"/>
  <path class="fil1" d="M101217.08 60954.65l0 -3178.84c0,-133.84 11.16,-310.34 33.49,-529.79 22.32,-219.35 79.92,-435.01 172.91,-646.89 92.88,-211.87 236.09,-394.15 429.43,-546.53 193.34,-152.38 464.71,-228.62 814.22,-228.62 252.83,0 447.97,55.71 585.59,167.23 137.53,111.52 239.79,249.05 306.66,412.69 66.87,163.64 106.03,334.66 117.1,513.05 11.16,178.49 16.74,334.65 16.74,468.5l0 3569.2 948.06 0 0 -3178.84c0,-163.54 14.95,-358.77 44.65,-585.6 29.8,-226.72 92.98,-440.49 189.65,-641.31 96.67,-200.71 236.09,-371.73 418.27,-513.04 182.18,-141.22 429.43,-211.88 741.66,-211.88 230.52,0 416.38,33.49 557.8,100.36 141.22,66.87 250.84,167.33 328.97,301.17 78.14,133.84 130.16,297.38 156.17,490.72 26.01,193.34 38.97,416.38 38.97,669.22l0 3569.2 948.06 0 0 -3892.7c0,-171.01 -18.54,-362.46 -55.71,-574.44 -37.18,-211.87 -117.1,-409 -239.78,-591.08 -122.68,-182.17 -301.17,-334.65 -535.37,-457.33 -234.3,-122.68 -544.74,-183.97 -931.32,-183.97 -111.62,0 -241.77,11.06 -390.47,33.38 -148.69,22.33 -304.85,70.66 -468.5,145.01 -163.54,74.34 -321.6,182.17 -473.98,323.49 -152.37,141.22 -284.42,327.18 -395.94,557.69l-78.13 0c-44.55,-118.99 -107.74,-239.78 -189.56,-362.56 -81.82,-122.68 -185.96,-235.99 -312.33,-340.13 -126.37,-104.15 -276.95,-189.66 -451.66,-256.53 -174.8,-66.87 -384.88,-100.35 -630.24,-100.35 -111.52,0 -245.36,12.95 -401.53,38.96 -156.17,26.11 -312.33,76.24 -468.4,150.59 -156.17,74.44 -303.06,178.49 -440.59,312.33 -137.63,133.84 -250.95,308.65 -340.24,524.21l-44.65 0 0 -903.41 -948.06 0 0 5576.84 948.06 0z"/>
  <path class="fil1" d="M23619.08 71593.19c-173.21,0 -307.25,64.98 -402.23,195.13 -94.97,130.06 -142.41,311.34 -142.41,543.74 0,483.85 181.58,725.72 544.64,725.72 152.28,0 336.85,-38.07 553.51,-114.21l0 385.79c-178.09,74.14 -377.01,111.31 -596.56,111.31 -315.62,0 -557,-95.77 -724.23,-287.21 -167.13,-191.35 -250.74,-466.11 -250.74,-824.29 0,-225.63 41.06,-423.25 123.18,-592.87 82.12,-169.62 200.11,-299.68 353.99,-390.27 153.77,-90.49 334.06,-135.73 540.85,-135.73 210.68,0 422.36,50.92 635.13,152.87l-148.39 373.93c-81.13,-38.67 -162.75,-72.26 -244.87,-100.96 -82.12,-28.6 -162.74,-42.95 -241.87,-42.95z"/>
  <polygon class="fil1" points="26867.68,71751.85 26867.68,72091.78 26324.53,72091.78 26324.53,73410.98 25871.98,73410.98 25871.98,72091.78 25327.34,72091.78 25327.34,71751.85 "/>
  <path class="fil1" d="M27835.37 71751.85l495.61 0 313.13 933.51c26.81,81.12 45.04,177.09 54.91,287.81l8.87 0c10.96,-101.85 32.19,-197.82 63.88,-287.81l307.15 -933.51 485.24 0 -701.9 1871.3c-64.28,173.11 -156.07,302.77 -275.26,388.87 -119.19,86.11 -258.41,129.06 -417.77,129.06 -78.13,0 -154.77,-8.37 -230.01,-25.21l0 -359.18c54.41,12.86 113.81,19.34 178.09,19.34 80.22,0 150.18,-24.52 210.08,-73.45 59.79,-48.93 106.54,-122.88 140.22,-221.84l26.61 -81.62 -658.85 -1647.27z"/>
  <path class="fil1" d="M31737.04 73080.01l0 -988.23 -339.84 0c-24.82,183.98 -58.7,358.68 -101.65,523.81 -43.06,165.24 -102.65,320.01 -178.89,464.42l620.38 0zm695.92 926.03l-406.61 0 0 -595.06 -1115.89 0 0 595.06 -406.71 0 0 -926.03 139.52 0c94.98,-147.4 174.71,-333.36 238.99,-558 64.28,-224.53 109.32,-481.25 135.04,-770.16l1172.29 0 0 1328.16 243.37 0 0 926.03z"/>
  <path class="fil1" d="M34050.73 71751.85l0 655.95c0,69.37 -11.36,238.49 -34.08,507.57l765.68 -1163.52 544.64 0 0 1659.13 -437.81 0 0 -661.84c0,-117.7 9.97,-283.93 29.7,-498.6l-762.69 1160.44 -543.24 0 0 -1659.13 437.8 0z"/>
  <path class="fil1" d="M36950.62 73410.98l-489.73 0 446.68 -655.86c-106.94,-44.65 -187.76,-108.93 -242.67,-193.04 -54.92,-84.02 -82.32,-182.98 -82.32,-296.79 0,-160.15 60.09,-285.82 180.38,-376.81 120.09,-91.09 284.13,-136.63 491.82,-136.63l771.66 0 0 1659.13 -452.55 0 0 -617.29 -249.35 0 -373.92 617.29zm75.64 -1142.6c0,69.26 27.21,123.38 81.62,162.45 54.42,39.06 125.67,58.6 213.67,58.6l252.34 0 0 -418.47 -310.14 0c-74.25,0 -132.45,18.03 -174.41,54.11 -42.05,36.08 -63.08,83.91 -63.08,143.31z"/>
  <polygon class="fil1" points="42170.18,71751.85 42668.78,71751.85 42011.42,72547.33 42726.68,73410.98 42213.23,73410.98 41535.05,72569.55 41535.05,73410.98 41082.4,73410.98 41082.4,71751.85 41535.05,71751.85 41535.05,72557.69 "/>
  <path class="fil1" d="M44221.27 72578.52c0,164.14 26.91,288.32 80.82,372.43 53.92,84.01 141.72,126.17 263.4,126.17 120.69,0 207.59,-41.86 260.51,-125.47 52.92,-83.52 79.33,-207.99 79.33,-373.13 0,-164.34 -26.71,-287.52 -80.12,-369.64 -53.42,-82.02 -141.02,-123.07 -262.71,-123.07 -120.68,0 -207.69,40.76 -261.1,122.38 -53.42,81.62 -80.13,205.1 -80.13,370.33zm1147.08 0c0,270.08 -71.16,481.26 -213.67,633.64 -142.51,152.28 -340.93,228.51 -595.07,228.51 -159.35,0 -299.77,-34.98 -421.46,-104.64 -121.68,-69.76 -215.16,-169.92 -280.44,-300.47 -65.27,-130.65 -97.96,-282.93 -97.96,-457.04 0,-271.07 70.76,-481.85 212.27,-632.24 141.42,-150.38 340.24,-225.53 596.46,-225.53 159.36,0 299.78,34.58 421.46,103.85 121.69,69.26 215.17,168.72 280.54,298.28 65.28,129.66 97.87,281.54 97.87,455.64z"/>
  <path class="fil1" d="M47312.61 73440.67c-516.44,0 -774.66,-283.43 -774.66,-850.29 0,-281.94 70.26,-497.4 210.68,-646.29 140.52,-148.89 341.83,-223.34 604.04,-223.34 191.84,0 364.05,37.57 516.33,112.72l-133.44 350.2c-71.26,-28.6 -137.53,-52.12 -198.92,-70.46 -61.39,-18.34 -122.68,-27.4 -183.97,-27.4 -235.5,0 -353.19,167.22 -353.19,501.58 0,324.49 117.69,486.74 353.19,486.74 87.1,0 167.73,-11.66 241.87,-34.88 74.15,-23.22 148.39,-59.6 222.64,-109.03l0 387.28c-73.25,46.44 -147.2,78.63 -221.84,96.47 -74.75,17.74 -168.92,26.7 -282.73,26.7z"/>
  <path class="fil1" d="M51188.96 73410.98l-422.96 0 0 -1307.44 -23.72 92.09c-53.41,208.69 -101.35,366.45 -144,473.38l-293.8 741.97 -322 0 -298.28 -747.95c-42.55,-108.83 -88.1,-261.6 -136.53,-458.53l-28.21 -100.96 0 1307.44 -421.46 0 0 -1659.13 623.27 0 285.03 707.88c29.6,76.14 57.1,163.74 82.32,262.7 25.21,98.96 42.25,183.47 51.12,253.73 32.69,-148.39 58.2,-254.93 76.54,-319.8 18.24,-64.78 38.27,-124.38 60.1,-178.79 21.72,-54.42 120.09,-296.29 295.19,-725.72l617.39 0 0 1659.13z"/>
  <path class="fil1" d="M53247.42 72042.75c-95.97,0 -171.21,30.5 -225.63,91.29 -54.41,60.79 -85.5,147.2 -93.38,258.92l635.13 0c-2.09,-111.72 -31.29,-198.13 -87.6,-258.92 -56.41,-60.79 -132.55,-91.29 -228.52,-91.29zm63.78 1397.92c-267.08,0 -475.77,-73.74 -626.16,-221.14 -150.48,-147.4 -225.62,-356.08 -225.62,-626.16 0,-278.05 69.46,-493.01 208.48,-644.9 139.03,-151.78 331.17,-227.72 576.53,-227.72 234.4,0 416.98,66.77 547.63,200.32 130.56,133.54 195.83,318.11 195.83,553.51l0 219.65 -1069.94 0c4.98,128.56 43.05,229.01 114.31,301.27 71.25,72.15 171.11,108.33 299.67,108.33 99.96,0 194.44,-10.47 283.44,-31.2 89.09,-20.73 182.07,-53.91 279.04,-99.46l0 350.21c-79.23,39.56 -163.74,68.96 -253.83,88.29 -89.99,19.34 -199.82,29 -329.38,29z"/>
  <polygon class="fil1" points="56625.08,71751.85 56625.08,72091.78 56081.94,72091.78 56081.94,73410.98 55629.38,73410.98 55629.38,72091.78 55084.74,72091.78 55084.74,71751.85 "/>
  <path class="fil1" d="M58190.93 72578.52c0,164.14 26.91,288.32 80.82,372.43 53.92,84.01 141.72,126.17 263.4,126.17 120.69,0 207.59,-41.86 260.51,-125.47 52.92,-83.52 79.33,-207.99 79.33,-373.13 0,-164.34 -26.71,-287.52 -80.13,-369.64 -53.41,-82.02 -141.01,-123.07 -262.7,-123.07 -120.69,0 -207.69,40.76 -261.11,122.38 -53.41,81.62 -80.12,205.1 -80.12,370.33zm1147.08 0c0,270.08 -71.16,481.26 -213.67,633.64 -142.52,152.28 -340.94,228.51 -595.07,228.51 -159.35,0 -299.77,-34.98 -421.46,-104.64 -121.68,-69.76 -215.16,-169.92 -280.44,-300.47 -65.28,-130.65 -97.96,-282.93 -97.96,-457.04 0,-271.07 70.75,-481.85 212.27,-632.24 141.42,-150.38 340.24,-225.53 596.46,-225.53 159.36,0 299.78,34.58 421.46,103.85 121.68,69.26 215.17,168.72 280.54,298.28 65.28,129.66 97.87,281.54 97.87,455.64z"/>
  <path class="fil1" d="M62093.99 73410.98l-452.65 0 0 -1319.2 -416.98 0c-31.59,370.94 -70.26,647.69 -115.8,830.27 -45.45,182.47 -106.04,314.52 -181.78,396.14 -75.64,81.62 -174.8,122.48 -297.49,122.48 -104.84,0 -190.94,-15.84 -258.21,-47.53l0 -362.07c48.43,19.84 96.97,29.7 145.4,29.7 56.41,0 103.65,-40.56 141.72,-121.68 38.17,-81.12 72.25,-216.46 102.45,-405.91 30.09,-189.46 56.1,-449.87 77.83,-781.33l1255.51 0 0 1659.13z"/>
  <path class="fil1" d="M63825.97 72578.52c0,164.14 26.91,288.32 80.82,372.43 53.92,84.01 141.72,126.17 263.4,126.17 120.69,0 207.59,-41.86 260.51,-125.47 52.92,-83.52 79.33,-207.99 79.33,-373.13 0,-164.34 -26.71,-287.52 -80.12,-369.64 -53.42,-82.02 -141.02,-123.07 -262.71,-123.07 -120.68,0 -207.69,40.76 -261.1,122.38 -53.42,81.62 -80.13,205.1 -80.13,370.33zm1147.08 0c0,270.08 -71.16,481.26 -213.67,633.64 -142.51,152.28 -340.94,228.51 -595.07,228.51 -159.35,0 -299.77,-34.98 -421.46,-104.64 -121.68,-69.76 -215.16,-169.92 -280.44,-300.47 -65.27,-130.65 -97.96,-282.93 -97.96,-457.04 0,-271.07 70.76,-481.85 212.27,-632.24 141.42,-150.38 340.24,-225.53 596.46,-225.53 159.36,0 299.78,34.58 421.46,103.85 121.69,69.26 215.17,168.72 280.54,298.28 65.28,129.66 97.87,281.54 97.87,455.64z"/>
  <polygon class="fil1" points="67389.29,71751.85 67389.29,72091.78 66696.26,72091.78 66696.26,73410.98 66243.61,73410.98 66243.61,71751.85 "/>
  <path class="fil1" d="M69030.68 71751.85l0 655.95c0,69.37 -11.36,238.49 -34.08,507.57l765.68 -1163.52 544.64 0 0 1659.13 -437.8 0 0 -661.84c0,-117.7 9.96,-283.93 29.7,-498.6l-762.7 1160.44 -543.24 0 0 -1659.13 437.8 0z"/>
  <path class="fil1" d="M72116.14 71751.85l0 655.95c0,69.37 -11.36,238.49 -34.09,507.57l765.69 -1163.52 544.64 0 0 1659.13 -437.81 0 0 -661.84c0,-117.7 9.97,-283.93 29.7,-498.6l-762.69 1160.44 -543.25 0 0 -1659.13 437.81 0z"/>
  <path class="fil1" d="M76887.53 71751.85l0 655.95c0,69.37 -11.36,238.49 -34.08,507.57l765.68 -1163.52 544.64 0 0 1659.13 -437.8 0 0 -661.84c0,-117.7 9.96,-283.93 29.69,-498.6l-762.69 1160.44 -543.24 0 0 -1659.13 437.8 0z"/>
  <polygon class="fil1" points="82308.9,71751.85 82807.5,71751.85 82150.14,72547.33 82865.4,73410.98 82351.96,73410.98 81673.77,72569.55 81673.77,73410.98 81221.12,73410.98 81221.12,71751.85 81673.77,71751.85 81673.77,72557.69 "/>
  <path class="fil1" d="M84359.99 72578.52c0,164.14 26.91,288.32 80.83,372.43 53.91,84.01 141.71,126.17 263.4,126.17 120.68,0 207.59,-41.86 260.51,-125.47 52.92,-83.52 79.32,-207.99 79.32,-373.13 0,-164.34 -26.7,-287.52 -80.12,-369.64 -53.42,-82.02 -141.02,-123.07 -262.7,-123.07 -120.69,0 -207.69,40.76 -261.11,122.38 -53.42,81.62 -80.13,205.1 -80.13,370.33zm1147.08 0c0,270.08 -71.15,481.26 -213.67,633.64 -142.51,152.28 -340.93,228.51 -595.06,228.51 -159.36,0 -299.78,-34.98 -421.46,-104.64 -121.69,-69.76 -215.17,-169.92 -280.44,-300.47 -65.28,-130.65 -97.97,-282.93 -97.97,-457.04 0,-271.07 70.76,-481.85 212.27,-632.24 141.42,-150.38 340.24,-225.53 596.47,-225.53 159.35,0 299.77,34.58 421.46,103.85 121.68,69.26 215.16,168.72 280.54,298.28 65.27,129.66 97.86,281.54 97.86,455.64z"/>
  <path class="fil1" d="M87688.72 73440.67c-194.94,0 -347.72,-70.75 -458.54,-212.17l-23.72 0c15.85,138.43 23.72,218.55 23.72,240.38l0 672.2 -452.65 0 0 -2389.23 368.14 0 63.68 215.26 20.83 0c105.94,-164.24 262.71,-246.36 470.4,-246.36 195.93,0 349.3,75.64 460.02,227.03 110.82,151.38 166.24,361.56 166.24,630.74 0,177.1 -26.02,330.87 -77.94,461.42 -51.92,130.66 -125.87,230.02 -221.84,298.28 -95.97,68.27 -208.79,102.45 -338.34,102.45zm-133.55 -1357.85c-111.72,0 -193.34,34.38 -244.86,103.14 -51.42,68.77 -78.13,182.28 -80.13,340.54l0 48.93c0,178.19 26.51,305.76 79.43,382.89 52.92,77.24 136.73,115.81 251.44,115.81 202.81,0 304.26,-167.23 304.26,-501.59 0,-163.24 -25.01,-285.62 -74.94,-367.24 -49.93,-81.72 -128.36,-122.48 -235.2,-122.48z"/>
  <path class="fil1" d="M90508.48 73440.67c-194.93,0 -347.71,-70.75 -458.53,-212.17l-23.72 0c15.84,138.43 23.72,218.55 23.72,240.38l0 672.2 -452.66 0 0 -2389.23 368.15 0 63.68 215.26 20.83 0c105.93,-164.24 262.7,-246.36 470.39,-246.36 195.93,0 349.31,75.64 460.03,227.03 110.82,151.38 166.23,361.56 166.23,630.74 0,177.1 -26.01,330.87 -77.93,461.42 -51.93,130.66 -125.87,230.02 -221.85,298.28 -95.97,68.27 -208.78,102.45 -338.34,102.45zm-133.54 -1357.85c-111.72,0 -193.34,34.38 -244.87,103.14 -51.42,68.77 -78.13,182.28 -80.12,340.54l0 48.93c0,178.19 26.51,305.76 79.43,382.89 52.91,77.24 136.73,115.81 251.44,115.81 202.8,0 304.26,-167.23 304.26,-501.59 0,-163.24 -25.02,-285.62 -74.95,-367.24 -49.93,-81.72 -128.36,-122.48 -235.19,-122.48z"/>
  <path class="fil1" d="M93104.21 72042.75c-95.97,0 -171.22,30.5 -225.63,91.29 -54.41,60.79 -85.51,147.2 -93.38,258.92l635.13 0c-2.09,-111.72 -31.29,-198.13 -87.6,-258.92 -56.41,-60.79 -132.55,-91.29 -228.52,-91.29zm63.78 1397.92c-267.09,0 -475.77,-73.74 -626.16,-221.14 -150.49,-147.4 -225.63,-356.08 -225.63,-626.16 0,-278.05 69.46,-493.01 208.49,-644.9 139.02,-151.78 331.17,-227.72 576.53,-227.72 234.4,0 416.97,66.77 547.63,200.32 130.55,133.54 195.83,318.11 195.83,553.51l0 219.65 -1069.95 0c4.99,128.56 43.06,229.01 114.31,301.27 71.26,72.15 171.12,108.33 299.68,108.33 99.96,0 194.44,-10.47 283.43,-31.2 89.1,-20.73 182.08,-53.91 279.05,-99.46l0 350.21c-79.23,39.56 -163.74,68.96 -253.84,88.29 -89.99,19.34 -199.81,29 -329.37,29z"/>
  <polygon class="fil1" points="96196.94,71751.85 96695.53,71751.85 96038.18,72547.33 96753.44,73410.98 96239.99,73410.98 95561.81,72569.55 95561.81,73410.98 95109.16,73410.98 95109.16,71751.85 95561.81,71751.85 95561.81,72557.69 "/>
  <polygon class="fil1" points="99455.9,73080.01 99697.77,73080.01 99697.77,74006.04 99291.26,74006.04 99291.26,73410.98 97887.36,73410.98 97887.36,71751.85 98340.01,71751.85 98340.01,73071.14 99001.85,73071.14 99001.85,71751.85 99455.9,71751.85 "/>
  <path class="fil1" d="M101312.66 71751.85l0 655.95c0,69.37 -11.37,238.49 -34.09,507.57l765.69 -1163.52 544.63 0 0 1659.13 -437.8 0 0 -661.84c0,-117.7 9.97,-283.93 29.7,-498.6l-762.7 1160.44 -543.24 0 0 -1659.13 437.81 0z"/>
  <path class="fil1" d="M104398.01 71751.85l0 655.95c0,69.37 -11.36,238.49 -34.08,507.57l765.68 -1163.52 544.64 0 0 1659.13 -437.8 0 0 -661.84c0,-117.7 9.96,-283.93 29.69,-498.6l-762.69 1160.44 -543.24 0 0 -1659.13 437.8 0z"/>
  <path class="fil1" d="M109944.06 71742.98c277.05,22.72 494.21,108.33 651.47,256.72 157.26,148.39 235.89,342.33 235.89,581.71 0,244.37 -77.63,440 -232.9,586.9 -155.37,146.99 -373.52,231.8 -654.46,254.53l0 718.24 -419.97 0 0 -718.24c-279.94,-25.72 -498.79,-113.52 -656.65,-263.4 -157.76,-149.89 -236.69,-342.53 -236.69,-578.03 0,-250.34 76.13,-447.87 228.51,-592.87 152.38,-144.91 373.93,-226.73 664.83,-245.56l0 -641.01 419.97 0 0 641.01zm-847.41 838.43c0,139.52 38.17,253.04 114.31,340.64 76.14,87.5 180.58,140.12 313.13,157.96l0 -997.19c-127.56,16.84 -230.81,70.75 -309.34,161.74 -78.73,91.09 -118.1,203.31 -118.1,336.85zm1270.26 0c0,-130.55 -37.07,-240.58 -111.22,-330.17 -74.14,-89.49 -178.09,-143.71 -311.63,-162.45l0 991.22c131.55,-17.84 234.89,-70.66 310.14,-158.76 75.14,-88 112.71,-201.31 112.71,-339.84z"/>
  <path class="fil1" d="M112539.79 71751.85l0 655.95c0,69.37 -11.37,238.49 -34.09,507.57l765.69 -1163.52 544.63 0 0 1659.13 -437.8 0 0 -661.84c0,-117.7 9.97,-283.93 29.7,-498.6l-762.69 1160.44 -543.25 0 0 -1659.13 437.81 0z"/>
  <polygon class="fil1" points="116333.02,71751.85 116333.02,72091.78 115639.99,72091.78 115639.99,73410.98 115187.34,73410.98 115187.34,71751.85 "/>
  <path class="fil1" d="M117299.32 71751.85l495.61 0 313.13 933.51c26.8,81.12 45.04,177.09 54.91,287.81l8.87 0c10.96,-101.85 32.19,-197.82 63.88,-287.81l307.15 -933.51 485.24 0 -701.9 1871.3c-64.28,173.11 -156.07,302.77 -275.26,388.87 -119.19,86.11 -258.42,129.06 -417.77,129.06 -78.13,0 -154.77,-8.37 -230.02,-25.21l0 -359.18c54.42,12.86 113.82,19.34 178.1,19.34 80.22,0 150.18,-24.52 210.08,-73.45 59.79,-48.93 106.53,-122.88 140.22,-221.84l26.61 -81.62 -658.85 -1647.27z"/>
  <path class="fil1" d="M121073.22 73440.67c-194.93,0 -347.71,-70.75 -458.53,-212.17l-23.72 0c15.85,138.43 23.72,218.55 23.72,240.38l0 672.2 -452.65 0 0 -2389.23 368.14 0 63.68 215.26 20.83 0c105.94,-164.24 262.7,-246.36 470.39,-246.36 195.93,0 349.31,75.64 460.03,227.03 110.82,151.38 166.23,361.56 166.23,630.74 0,177.1 -26.01,330.87 -77.93,461.42 -51.93,130.66 -125.87,230.02 -221.84,298.28 -95.98,68.27 -208.79,102.45 -338.35,102.45zm-133.54 -1357.85c-111.72,0 -193.34,34.38 -244.87,103.14 -51.42,68.77 -78.13,182.28 -80.12,340.54l0 48.93c0,178.19 26.51,305.76 79.43,382.89 52.92,77.24 136.73,115.81 251.44,115.81 202.8,0 304.26,-167.23 304.26,-501.59 0,-163.24 -25.02,-285.62 -74.95,-367.24 -49.93,-81.72 -128.36,-122.48 -235.19,-122.48z"/>
  <path class="fil1" d="M123434.45 72392.96l218.16 0c253.23,0 440.79,40.56 562.47,121.68 121.69,81.12 182.48,203.8 182.48,368.04 0,175.1 -60.79,306.95 -182.48,395.45 -121.68,88.6 -303.76,132.85 -546.13,132.85l-687.15 0 0 -1659.13 452.65 0 0 641.11zm510.46 495.7c0,-64.38 -25.71,-110.92 -77.14,-139.62 -51.42,-28.6 -128.16,-42.95 -230.01,-42.95l-203.31 0 0 391.76 209.19 0c200.81,0 301.27,-69.77 301.27,-209.19zm1145.58 522.32l-452.55 0 0 -1659.13 452.55 0 0 1659.13z"/>
 </g>
</svg>
