<?xml version="1.0" encoding="UTF-8"?>
<!DOCTYPE svg PUBLIC "-//W3C//DTD SVG 1.1//EN" "http://www.w3.org/Graphics/SVG/1.1/DTD/svg11.dtd">
<!-- Creator: CorelDRAW 2019 (64-Bit) -->
<svg xmlns="http://www.w3.org/2000/svg" xml:space="preserve" width="12992px" height="5841px" version="1.1" style="shape-rendering:geometricPrecision; text-rendering:geometricPrecision; image-rendering:optimizeQuality; fill-rule:evenodd; clip-rule:evenodd"
viewBox="0 0 12992 5841.01"
 xmlns:xlink="http://www.w3.org/1999/xlink">
 <defs>
  <style type="text/css">
   <![CDATA[
    .str0 {stroke:#8264B8;stroke-width:155.73;stroke-miterlimit:4}
    .fil0 {fill:none;fill-rule:nonzero}
    .fil1 {fill:#8264B8;fill-rule:nonzero}
   ]]>
  </style>
 </defs>
 <g id="Слой_x0020_1">
  <metadata id="CorelCorpID_0Corel-Layer"/>
  <line class="fil0 str0" x1="237.34" y1="3853.44" x2="12694.73" y2= "3853.44" />
  <line class="fil0 str0" x1="237.34" y1="1124.89" x2="12694.73" y2= "1124.89" />
  <path class="fil1" d="M1878.64 3071.5c2.13,15.85 7.45,46.48 1.06,83.45 -7.45,40.14 -24.49,67.6 -33.02,82.4 -23.42,38.02 -55.38,70.76 -95.85,96.12 -2.13,2.1 -5.32,2.1 -8.52,2.1 -3.19,0 -7.45,-1.04 -10.64,-4.22 -5.33,-4.22 -7.46,-11.62 -4.26,-17.95 8.52,-21.13 12.77,-42.26 12.77,-63.38 0,-23.24 -5.32,-39.09 -10.64,-55.99 -6.39,-17.95 -11.72,-36.97 -9.59,-62.31 3.2,-28.53 18.1,-56 43.67,-82.4 5.32,-5.29 12.78,-6.35 18.1,-3.17 2.13,1.05 48.99,25.35 30.89,114.09 -2.13,8.45 -9.58,13.72 -19.18,12.66 -8.51,-2.11 -13.84,-10.56 -12.77,-19.01 7.45,-40.14 0,-61.27 -6.39,-71.82 -13.84,16.9 -22.36,34.85 -24.49,51.75 -2.14,17.96 2.13,31.69 8.52,48.59 5.32,17.96 12.77,36.97 12.77,65.49 0,9.52 -1.06,19.01 -2.13,28.52 19.17,-16.9 35.14,-36.97 49,-58.1 8.51,-13.72 22.36,-36.97 28.74,-71.82 6.4,-32.75 2.13,-58.1 -1.06,-72.89 -6.39,-39.07 -21.3,-76.05 -44.72,-109.85 -5.34,-7.39 -3.21,-16.9 4.26,-22.19 7.45,-5.27 17.03,-3.17 22.36,4.23 26.63,41.19 43.67,82.39 51.12,125.7zm-115.02 -122.53c-7.45,-4.22 -17.05,-2.11 -22.37,5.28 -29.82,46.48 -70.29,87.68 -117.15,119.36 -36.21,23.24 -76.68,38.04 -119.29,52.82 -53.25,17.96 -107.56,36.97 -152.29,76.05 -43.67,36.97 -73.48,89.79 -89.47,155.28 -2.13,6.33 1.08,13.74 7.47,16.9 2.13,1.06 5.32,2.11 7.45,2.11 4.26,0 7.45,-1.05 10.65,-4.22 28.76,-27.47 60.7,-46.48 94.79,-57.05 29.81,-9.5 54.31,-10.56 78.81,-11.61 33.01,-1.05 62.83,-2.11 91.58,-25.36 21.31,-16.89 37.28,-43.3 44.74,-77.11 1.06,-4.21 0,-9.5 -3.2,-13.72 -3.19,-4.23 -7.45,-6.35 -11.71,-6.35 -25.57,-1.05 -50.06,2.12 -74.56,8.45 -20.23,5.29 -40.46,13.74 -59.64,23.25 -7.45,4.23 -10.64,13.73 -6.39,21.12 4.26,7.4 13.85,10.57 21.31,6.34 15.97,-9.51 34.07,-15.84 52.19,-21.13 13.84,-4.22 28.75,-6.33 43.65,-6.33 -6.39,16.89 -15.97,30.63 -27.68,40.14 -20.23,15.84 -42.6,16.9 -72.43,17.95 -25.55,1.06 -54.31,2.12 -87.32,12.68 -22.37,7.39 -43.67,16.9 -63.91,30.64 14.92,-36.98 36.21,-66.56 62.84,-89.79 40.48,-34.87 89.47,-51.77 142.72,-69.72 42.59,-14.78 87.32,-29.58 125.66,-55.98 51.12,-33.81 94.79,-78.17 126.74,-127.82 6.39,-8.45 4.26,-17.95 -3.19,-22.18zm89.46 -286.26c4.26,-1.06 9.59,0 13.85,3.17 9.58,8.45 17.03,17.96 23.42,28.52 20.24,32.74 24.5,72.88 12.79,118.3 -6.4,26.42 -19.18,50.71 -37.28,72.89 -3.19,3.16 -7.45,6.34 -12.78,6.34 -153.37,-3.18 -195.96,-105.63 -208.75,-160.56 -6.39,-2.11 -11.71,-4.23 -15.97,-8.45 -46.86,27.47 -107.56,85.56 -77.75,199.64 19.18,6.34 39.41,9.51 59.65,8.45 38.33,-2.11 68.16,-14.78 88.39,-36.97 6.4,-7.39 11.72,-14.78 15.98,-23.24 4.26,-7.39 12.78,-11.61 21.3,-7.39 7.45,4.23 11.71,12.68 7.45,21.12 -5.33,11.63 -12.78,22.19 -20.23,30.64 -25.57,28.52 -62.85,44.36 -110.76,47.53 -3.21,0 -7.47,0 -10.66,0 -23.43,0 -47.93,-4.23 -70.29,-13.73 -4.26,-2.11 -8.52,-5.28 -9.58,-10.57 -11.71,-42.24 -13.84,-78.17 -8.52,-108.79 -3.19,3.16 -7.46,5.28 -11.72,5.28 -1.07,0 -1.07,0 -2.13,0 -12.78,-1.06 -24.49,-4.22 -36.2,-9.51 -35.15,-14.78 -62.85,-45.42 -79.88,-88.73 -10.65,-25.35 -14.91,-52.81 -12.78,-80.27 0,-5.29 3.19,-9.51 7.45,-11.63 34.09,-23.24 64.96,-34.86 94.79,-41.19 -2.13,-2.12 -4.26,-5.28 -4.26,-7.4 -3.19,-12.67 -4.26,-24.3 -3.19,-36.96 2.13,-38.04 21.29,-73.95 57.5,-105.63 20.24,-17.97 44.74,-31.7 72.42,-39.1 4.26,-1.05 9.58,0 13.84,2.12 123.55,88.73 101.19,197.53 79.88,249.29 4.26,5.28 7.46,11.61 8.52,17.96 54.33,5.28 137.39,-7.39 181.06,-117.25 -11.71,-16.9 -26.62,-30.64 -43.67,-42.26 -12.78,-7.39 -50.05,-30.63 -93.72,-21.13 -8.52,2.12 -18.1,5.29 -26.62,10.57 -7.45,4.23 -17.05,1.05 -21.31,-6.34 -4.26,-7.39 -1.06,-16.9 6.39,-21.12 10.66,-6.34 22.37,-10.57 35.15,-13.73 37.28,-8.46 76.69,0 117.16,25.35 23.42,14.78 42.59,33.79 58.57,58.09 2.13,4.22 3.2,9.51 1.07,13.74 -15.97,41.19 -36.22,71.82 -58.58,92.95zm-202.36 36.97c2.13,2.11 5.34,2.11 7.46,2.11 1.07,0 4.26,-1.05 5.33,-3.17 1.06,-1.06 2.13,-2.11 2.13,-4.22 1.06,-2.11 0,-6.34 -3.2,-8.46 0,0 -1.06,-1.04 -2.14,-1.04 -3.18,-2.12 -7.45,-1.06 -9.58,1.04 0,0 -1.06,1.06 -1.06,1.06 -2.13,2.12 -3.2,6.35 -1.07,9.51 0,1.06 1.07,2.11 2.13,3.17zm-153.36 -99.3c67.1,-4.22 117.16,29.58 144.84,53.88 5.33,-2.11 10.65,-3.17 17.05,-2.11 20.23,-49.65 30.88,-133.1 -63.91,-204.93 -20.23,6.35 -37.28,16.9 -52.18,30.64 -28.75,25.34 -44.74,53.86 -46.87,83.44 0,9.51 0,17.97 2.13,27.47 2.13,4.22 1.07,8.45 -1.06,11.61zm118.22 94.02c0,-6.34 1.07,-11.62 3.2,-17.95 -40.48,-35.92 -116.1,-73.95 -216.21,-10.57 0,21.12 3.2,40.13 10.65,59.15 14.92,35.92 36.21,60.21 62.84,71.83 8.52,3.17 18.11,6.34 27.69,7.39 6.4,1.06 11.72,5.29 12.79,10.57 18.1,-65.49 66.02,-102.46 99.04,-120.42zm225.78 -20.07c-41.54,33.8 -88.4,42.25 -125.67,42.25 -9.58,0 -18.11,-1.06 -25.56,-1.06 -1.07,2.12 -2.13,3.17 -3.2,4.23 -3.19,3.17 -6.38,5.28 -9.58,7.39 11.71,52.82 50.06,126.76 169.33,133.09 12.79,-16.89 21.31,-34.85 25.57,-53.86 9.58,-38.03 6.39,-69.72 -9.58,-95.07 -5.33,-8.45 -10.65,-14.79 -18.11,-21.13 -4.26,-4.23 -5.33,-10.56 -3.2,-15.84zm-558.07 151.05c-51.12,23.24 -104.37,34.85 -159.75,35.91 -1.06,0 -1.06,0 -2.14,0 -55.38,0 -109.69,-11.61 -160.81,-34.85 -4.26,-2.12 -7.45,-6.34 -8.52,-10.57 -1.06,-4.23 0,-9.5 3.2,-13.73l26.63 -35.91c13.84,-17.96 30.87,-29.58 50.05,-35.92 4.26,-1.05 10.65,-3.17 20.23,-3.17 22.36,-2.11 35.15,2.12 46.86,6.35 7.46,2.1 13.85,4.22 24.5,5.27 9.59,0 15.98,-2.11 24.49,-4.23 11.72,-3.16 24.49,-7.39 45.8,-5.27 9.58,1.05 17.04,3.17 25.57,6.33 15.97,6.35 30.88,17.97 42.59,32.75l27.69 34.85c3.2,4.23 4.26,8.45 3.2,13.74 -2.13,2.12 -5.33,6.34 -9.59,8.45zm-31.95 -21.13l-14.91 -19.01c-8.52,-10.56 -18.11,-17.96 -28.76,-22.19 -5.32,-2.1 -10.64,-3.16 -17.03,-4.22 -15.98,-1.05 -23.44,1.06 -33.02,4.22 -8.52,3.18 -19.17,5.29 -34.08,5.29 -14.91,0 -24.5,-3.17 -33.01,-6.33 -9.59,-3.18 -18.12,-6.35 -34.09,-4.23 -6.39,1.05 -10.65,1.05 -13.84,2.11 -12.78,4.22 -24.5,12.68 -34.08,24.29l-14.91 19.02c41.54,16.9 85.2,24.3 128.87,24.3 0,0 1.06,0 1.06,0 43.66,1.05 86.26,-7.4 127.8,-23.25zm-19.17 87.68l-31.95 25.34c-9.58,5.29 -21.3,9.52 -33.02,11.63 -4.26,1.05 -9.58,1.05 -14.91,1.05l-58.57 0c-2.13,0 -5.32,0 -7.45,0 -11.73,-1.05 -23.44,-4.22 -34.09,-9.5l-37.28 -28.52c-7.45,-5.28 -17.03,-4.22 -22.36,3.17 -5.32,7.39 -4.26,16.9 3.2,22.17l38.34 29.59c1.07,1.05 2.13,1.05 2.13,1.05 14.91,7.4 30.88,11.62 46.86,13.74 3.2,0 7.46,0 10.65,0l58.57 0c6.39,0 12.78,0 19.18,-1.06 15.97,-2.12 30.88,-7.39 44.72,-15.84 1.07,0 1.07,-1.06 2.13,-1.06l33.02 -26.42c6.39,-5.27 8.52,-15.84 2.13,-22.17 -4.26,-7.39 -14.91,-8.45 -21.3,-3.17zm-214.07 -361.25c-8.52,2.1 -13.84,10.55 -11.71,19.01 3.19,13.73 11.71,19.01 27.69,29.58 5.32,3.16 10.65,7.39 18.1,11.61 17.04,11.62 40.47,17.95 64.97,17.95 23.43,0 46.86,-6.33 63.9,-17.95 7.46,-5.28 12.78,-8.45 18.1,-11.61 15.99,-10.57 24.51,-15.85 27.7,-29.58 2.13,-8.46 -3.19,-16.91 -11.71,-19.01 -8.53,-2.12 -17.05,3.16 -19.18,11.61 -1.06,2.11 -7.45,6.34 -14.91,10.56 -5.32,3.17 -10.64,7.39 -18.11,12.68 -23.42,15.84 -69.22,15.84 -92.66,0 -7.45,-5.29 -13.84,-9.51 -18.1,-12.68 -6.39,-4.22 -13.84,-8.45 -14.91,-10.56 -2.12,-8.45 -10.64,-13.73 -19.17,-11.61zm-321.63 -222.9c-3.2,8.46 1.06,16.91 9.58,20.09 2.13,1.04 4.26,1.04 5.33,1.04 6.38,0 12.77,-4.22 14.9,-10.56 7.47,-17.96 28.76,-25.35 40.48,-27.46 4.25,1.05 8.51,2.11 13.85,3.17 15.97,3.17 30.88,4.23 42.59,4.23 9.59,0 18.11,-1.06 23.44,-1.06 15.97,-1.06 27.68,-4.23 83.07,-19.01 19.17,-5.29 35.14,-9.51 45.8,-12.68 8.51,-2.12 13.84,-11.62 10.64,-20.07 -2.13,-8.45 -11.72,-13.74 -20.24,-10.57 -11.71,3.18 -27.68,7.4 -45.79,12.68 -54.32,14.79 -63.9,16.9 -76.68,17.96 -9.58,1.06 -30.89,3.17 -55.38,-3.17 -25.56,-5.28 -48.99,-17.96 -70.3,-35.92 -9.58,-7.39 -29.81,-20.07 -58.57,-19.01 -25.57,0 -44.73,11.62 -53.25,19.01 -7.45,5.28 -8.52,14.79 -3.19,22.19 5.32,7.39 14.9,8.45 22.36,3.16 5.32,-4.22 18.11,-11.62 35.14,-12.67 19.17,0 33.02,8.45 37.28,12.67 9.59,8.45 19.17,14.8 29.82,21.13 -13.85,8.45 -25.56,19.01 -30.88,34.85zm873.32 -67.6c17.03,0 28.75,7.4 35.13,12.68 7.47,5.29 17.05,4.23 22.38,-3.16 5.32,-7.4 4.25,-16.91 -3.2,-22.19 -8.52,-6.34 -27.69,-17.95 -53.25,-19.01 -28.76,-1.06 -48.99,11.62 -58.57,20.07 -21.31,17.96 -44.73,29.58 -70.3,35.91 -24.49,5.29 -45.8,4.23 -55.38,3.17 -12.78,-1.05 -22.36,-3.17 -76.69,-17.95 -19.16,-5.29 -34.07,-9.52 -45.78,-12.68 -8.53,-2.12 -17.05,2.11 -20.24,10.56 -2.13,8.45 2.13,16.9 10.64,20.07 11.73,3.17 27.7,7.4 45.8,12.67 54.32,14.8 67.1,17.97 83.08,19.02 5.32,0 12.77,1.05 23.42,1.05 11.72,0 26.63,-1.05 42.6,-4.22 4.26,-1.05 8.52,-2.11 13.86,-3.17 11.71,2.12 33,9.51 40.46,27.46 2.13,6.35 8.53,10.57 14.92,10.57 2.13,0 4.25,0 5.32,-1.06 8.52,-3.16 12.78,-12.67 9.58,-20.07 -6.39,-15.84 -18.1,-26.41 -29.82,-33.8 10.66,-6.33 20.24,-12.68 28.76,-21.13 4.26,-5.27 18.1,-14.79 37.28,-14.79zm-70.3 748.93c6.39,-6.34 7.45,-15.84 1.06,-22.19 -6.38,-6.33 -15.97,-7.39 -22.36,-1.05l-74.55 66.55c-50.06,42.25 -105.44,85.56 -164.01,125.7 -75.62,52.81 -169.35,52.81 -244.96,0 -149.1,-104.57 -406.83,-309.5 -462.22,-516.54 -34.08,-125.7 -55.38,-273.58 -59.64,-405.62l2.13 -5.29c55.38,-151.04 111.82,-306.32 352.52,-500.68 34.08,-27.47 96.93,-68.66 199.17,-106.69 8.52,-3.16 12.77,-12.67 9.58,-20.07 -3.19,-8.45 -12.79,-12.67 -20.24,-9.51 -84.13,31.69 -156.56,69.72 -208.74,111.98 -247.09,199.64 -305.66,360.2 -362.11,514.42l-3.2 7.39c-12.78,29.58 -36.2,53.87 -61.77,78.17 -14.91,14.78 -30.88,30.62 -43.67,48.59 -69.22,89.78 -70.28,225 -3.19,315.83 6.39,8.45 13.84,16.9 20.24,25.35 12.78,15.85 25.56,29.58 33.01,46.49 17.05,34.85 14.92,77.11 -6.39,109.85 -5.32,7.4 -3.19,16.9 4.26,22.18 3.2,2.12 5.32,2.12 8.53,2.12 5.32,0 10.65,-2.12 13.84,-7.4 26.62,-41.19 29.82,-96.12 8.52,-140.49 -9.58,-20.07 -24.5,-36.97 -37.28,-52.81 -6.39,-8.46 -13.84,-15.85 -19.16,-24.3 -59.64,-80.28 -58.58,-199.64 3.19,-277.81 11.71,-15.85 26.62,-29.57 41.54,-45.43 13.84,-13.72 27.68,-27.46 40.47,-43.3 7.45,121.47 28.75,252.46 58.57,365.48 58.58,216.55 322.7,427.81 475.01,534.5 43.65,30.63 92.64,45.41 140.57,45.41 47.93,0 97.98,-14.78 141.65,-45.41 59.65,-41.2 115.03,-84.51 167.21,-127.82l72.42 -67.6zm-829.65 -966.52c1.06,0 100.11,-14.79 177.86,0 73.48,13.73 106.5,54.92 107.57,55.98 3.19,4.23 7.45,6.34 12.77,6.34 3.2,0 6.39,-1.05 9.6,-3.17 7.45,-5.29 8.51,-14.78 3.19,-22.18 -1.06,-2.12 -39.41,-51.76 -126.74,-67.61 -84.14,-15.84 -184.25,-1.06 -188.51,0 -8.52,1.06 -14.91,9.51 -13.84,17.96 1.06,7.4 8.51,13.73 18.1,12.68zm667.77 -1.06c78.8,-14.78 176.8,0 177.86,0 8.52,1.06 17.04,-4.22 18.1,-13.73 1.07,-8.46 -4.26,-16.91 -13.84,-17.96 -4.26,-1.05 -105.45,-15.84 -188.51,0 -87.33,16.91 -125.68,65.5 -126.74,67.6 -5.33,7.4 -4.26,16.91 3.19,22.19 3.2,2.11 6.39,3.17 9.59,3.17 5.33,0 9.59,-2.12 12.78,-6.35 1.07,0 33.01,-41.18 107.57,-54.92zm-256.67 -481.68l25.56 13.73c82.01,44.37 168.28,90.85 246.02,142.61 187.44,124.64 318.44,297.88 410.04,543.99 -1.07,23.24 -2.13,47.54 -4.26,71.83l-6.39 98.24c-1.08,8.45 6.39,15.84 14.9,16.9 0,0 1.07,0 1.07,0 8.52,0 14.91,-6.33 15.97,-14.78l6.39 -98.24c2.13,-25.35 3.19,-51.76 4.26,-76.05 0,0 0,-1.06 0,-1.06 0,-1.06 0,-1.06 0,-2.12 0,-1.05 0,-1.05 0,-2.11 0,0 0,-1.06 0,-1.06 -94.79,-254.56 -228.97,-433.08 -423.87,-561.94 -79.88,-52.82 -166.15,-99.3 -249.23,-143.67l-25.55 -13.73c-7.45,-4.23 -17.04,-1.05 -21.31,6.34 -4.26,7.39 -1.06,16.9 6.4,21.12z"/>
  <path class="fil1" d="M12467.3 2737.54c-44.52,-68.38 -89.03,-139.38 -136.16,-268.24 -102.11,-278.74 102.11,-617.96 104.73,-620.59 7.86,-13.15 2.62,-28.93 -7.85,-36.82 -13.09,-7.88 -28.81,-2.63 -36.66,7.89 -7.85,15.78 -219.93,362.89 -109.96,665.31 26.18,76.26 54.98,131.48 81.16,178.82 -60.22,44.69 -316.8,236.66 -466.04,236.66 -151.87,0 -405.83,-189.33 -466.05,-236.66 26.19,-47.34 52.37,-102.56 81.17,-178.82 109.96,-302.42 -99.5,-652.16 -109.98,-665.31 -7.85,-13.15 -23.56,-15.77 -36.65,-7.89 -13.09,7.89 -15.7,23.67 -7.85,36.82 2.61,2.63 204.22,341.85 104.72,620.59 -47.11,126.23 -91.63,197.23 -136.14,268.24 -57.6,89.41 -112.58,173.56 -157.09,365.51 -18.33,78.9 -20.95,252.45 -20.95,260.35 0,15.77 10.47,26.29 26.18,26.29 13.1,0 26.19,-10.52 26.19,-26.29 0,-2.64 2.61,-176.2 18.32,-249.82 44.51,-181.45 96.88,-262.97 151.86,-349.75 10.47,-18.41 23.56,-34.18 34.04,-52.59 70.69,55.22 327.27,241.92 492.23,241.92 164.94,0 421.54,-186.7 492.23,-241.92 10.46,18.41 23.57,36.82 34.03,52.59 54.98,86.78 107.35,168.3 151.87,349.75 18.32,71 18.32,247.18 18.32,249.82 0,13.15 13.09,26.29 26.18,26.29 15.71,0 26.18,-13.14 26.18,-26.29 0,-7.9 -2.61,-181.45 -20.94,-260.35 -44.52,-189.33 -99.5,-276.1 -157.09,-365.51z"/>
  <path class="fil1" d="M11896.52 2558.71c13.09,0 20.94,-10.51 20.94,-21.03 0,-10.52 -10.48,-21.04 -20.94,-21.04 -13.09,0 -20.95,10.52 -20.95,21.04 0,10.52 7.86,21.03 20.95,21.03z"/>
  <path class="fil1" d="M11990.77 3234.54c-7.85,5.27 -60.22,36.81 -94.25,78.89 -34.04,-42.08 -86.41,-73.62 -94.26,-78.89 -13.09,-7.88 -28.8,-2.63 -36.65,7.89 -7.86,13.15 -2.62,28.92 7.85,36.82 20.95,13.15 83.78,57.85 96.87,94.66 2.62,10.52 13.1,18.41 23.56,18.41 10.48,0 20.96,-7.89 23.57,-18.41 13.09,-36.81 73.31,-78.89 96.87,-94.66 13.1,-7.9 15.72,-23.67 7.87,-36.82 -5.24,-10.52 -20.96,-15.77 -31.43,-7.89z"/>
  <path class="fil1" d="M11265.52 2361.49l-81.17 81.52c-10.47,10.52 -10.47,26.29 0,36.82 5.24,5.26 13.09,7.88 18.33,7.88 7.86,0 13.09,-2.62 18.33,-7.88l138.76 -139.37c0,0 2.63,-2.64 2.63,-5.26 2.61,-2.64 2.61,-5.26 2.61,-10.52 0,0 0,-2.63 0,-2.63 0,-2.64 0,-7.89 -2.61,-10.52 0,-2.63 0,-2.63 -2.63,-5.26 -2.61,-2.63 -5.22,-7.89 -7.85,-10.51l-144 -89.42c-13.09,-7.88 -28.81,-2.63 -36.66,7.89 -2.61,5.26 -2.61,7.89 -2.61,13.15 0,7.89 5.23,18.41 13.09,23.67l91.63 55.22c-138.76,18.41 -285.38,-13.15 -288,-13.15 -13.09,-2.63 -28.81,5.26 -31.42,21.04 -2.62,13.15 5.24,28.93 20.94,31.55 7.86,0 146.63,31.56 290.63,15.78z"/>
  <path class="fil1" d="M12839.09 2314.16c-2.63,-13.16 -18.34,-23.67 -31.43,-21.04 -2.61,0 -146.62,31.56 -288.01,13.15l91.65 -55.22c7.85,-5.26 13.09,-13.15 13.09,-23.67 0,-5.26 0,-10.52 -2.63,-13.15 -7.85,-13.15 -23.56,-15.77 -36.65,-7.89l-149.24 89.42c-5.23,2.62 -7.85,5.24 -10.47,10.51 0,0 0,2.63 -2.62,2.63 0,2.63 -2.61,7.89 -2.61,10.51 0,0 0,0 0,2.64 0,5.26 2.61,7.89 5.23,10.51 0,0 2.62,2.64 2.62,2.64l138.76 139.36c5.24,5.27 13.09,7.9 18.33,7.9 7.86,0 13.09,-2.63 18.33,-7.9 10.47,-10.51 10.47,-26.29 0,-36.8l-81.16 -81.53c144,15.78 285.38,-13.14 293.24,-15.77 18.33,0 26.18,-13.15 23.57,-26.3z"/>
  <path class="fil1" d="M3256.1 2841.48c-89.58,84.32 -195.85,126.47 -318.81,126.47 -68.49,0 -129.09,-11.85 -181.79,-35.57 -52.69,-23.72 -96.61,-55.34 -131.73,-94.85 -35.14,-39.53 -61.71,-85.2 -79.7,-137.01 -18.01,-51.81 -27.02,-105.83 -27.02,-162.04 0,-59.72 9.44,-114.39 28.32,-164 18.9,-49.63 45.45,-92.45 79.7,-128.46 34.26,-36 74.88,-64.1 121.87,-84.3 46.98,-20.2 98.14,-30.3 153.46,-30.3 37.76,0 72.24,4.38 103.42,13.17 31.17,8.79 58.84,20.2 83,34.25 24.15,14.05 43.91,30.08 59.29,48.08 15.36,18.01 26.12,36.23 32.26,54.67l97.49 0c-13.18,-29.86 -30.08,-57.52 -50.73,-82.99 -20.63,-25.47 -46.32,-47.43 -77.06,-65.87 -30.74,-18.43 -66.75,-32.93 -108.02,-43.47 -41.28,-10.53 -88.27,-15.81 -140.95,-15.81 -76.42,0 -146.02,10.97 -208.81,32.94 -62.79,21.95 -116.6,53.35 -161.37,94.19 -44.8,40.84 -79.49,90.02 -104.08,147.54 -24.6,57.53 -36.89,121.85 -36.89,193 0,61.48 9.88,121.41 29.64,179.81 19.76,58.4 50.27,110.23 91.55,155.45 41.28,45.24 93.98,81.69 158.1,109.35 64.1,27.67 140.5,41.5 229.21,41.5 56.22,0 106.49,-5.28 150.84,-15.81 44.35,-10.54 83,-23.5 115.93,-38.87 32.94,-15.37 60.38,-31.84 82.34,-49.4 21.95,-17.56 38.64,-32.94 50.06,-46.11l-39.52 -35.56z"/>
  <path class="fil1" d="M4215.09 2683.39c0,45.67 -7.9,89.38 -23.72,131.08 -15.8,41.71 -38.42,78.39 -67.83,110 -29.43,31.61 -65,56.65 -106.71,75.09 -41.72,18.44 -88.5,27.67 -140.3,27.67 -52.7,0 -100.35,-9.44 -142.95,-28.32 -42.58,-18.9 -78.59,-44.14 -108.01,-75.75 -29.42,-31.62 -52.26,-68.29 -68.51,-110.01 -16.24,-41.71 -24.37,-84.97 -24.37,-129.76 0,-45.66 8.13,-89.36 24.37,-131.08 16.25,-41.7 39.09,-78.38 68.51,-110 29.42,-31.6 65.43,-56.86 108.01,-75.74 42.6,-18.89 90.25,-28.32 142.95,-28.32 51.8,0 98.58,9.43 140.3,28.32 41.71,18.88 77.28,44.14 106.71,75.74 29.41,31.62 52.03,68.3 67.83,110 15.82,41.72 23.72,85.42 23.72,131.08zm-125.16 0c0,-61.48 -6.58,-111.32 -19.75,-149.51 -13.17,-38.21 -30.3,-67.85 -51.38,-88.93 -21.08,-21.07 -44.35,-35.35 -69.81,-42.82 -25.47,-7.45 -50.07,-11.2 -73.78,-11.2 -23.72,0 -48.29,3.75 -73.77,11.2 -25.47,7.47 -48.96,21.75 -70.48,42.82 -21.52,21.08 -39.08,50.72 -52.7,88.93 -13.6,38.19 -20.42,88.03 -20.42,149.51 0,60.61 6.82,110.01 20.42,148.21 13.62,38.2 31.18,67.84 52.7,88.91 21.52,21.08 45.01,35.36 70.48,42.82 25.48,7.47 50.05,11.21 73.77,11.21 23.71,0 48.31,-3.74 73.78,-11.21 25.46,-7.46 48.73,-21.74 69.81,-42.82 21.08,-21.07 38.21,-50.71 51.38,-88.91 13.17,-38.2 19.75,-87.6 19.75,-148.21z"/>
  <path class="fil1" d="M4951.46 2502.91c0,-23.71 -6.14,-45.66 -18.44,-65.86 -12.31,-20.2 -29.22,-37.55 -50.74,-52.05 -21.5,-14.48 -46.54,-25.91 -75.07,-34.25 -28.55,-8.34 -59.08,-12.5 -91.57,-12.5 -30.73,0 -59.5,3.95 -86.28,11.85 -26.79,7.9 -50.06,19.75 -69.82,35.57 -19.76,15.81 -35.36,35.35 -46.76,58.62 -11.42,23.27 -17.13,50.28 -17.13,81.02 0,42.15 9.65,75.53 28.98,100.12 19.33,24.59 43.48,44.35 72.46,59.28 28.98,14.92 60.37,27 94.19,36.23 33.8,9.23 65.21,19.33 94.19,30.3 28.98,10.97 53.13,24.81 72.45,41.49 19.32,16.69 28.99,39.52 28.99,68.5 0,12.31 -1.98,25.04 -5.93,38.21 -3.96,13.17 -11.2,25.25 -21.74,36.22 -10.54,10.98 -25.03,20.21 -43.47,27.67 -18.45,7.47 -41.72,11.21 -69.83,11.21 -35.12,0 -64.76,-5.5 -88.91,-16.48 -24.16,-10.97 -43.92,-24.15 -59.29,-39.53 -15.36,-15.36 -26.35,-30.94 -32.94,-46.75 -6.58,-15.82 -9.87,-28.99 -9.87,-39.53l-85.64 0c0,24.59 5.71,48.54 17.13,71.81 11.42,23.27 28.76,44.13 52.04,62.57 23.27,18.43 51.81,33.16 85.63,44.13 33.82,10.98 73.12,16.47 117.9,16.47 80.8,0 141.62,-17.79 182.46,-53.36 40.84,-35.56 61.26,-82.34 61.26,-140.3 0,-42.15 -9.88,-75.97 -29.65,-101.44 -19.76,-25.47 -44.57,-45.88 -74.42,-61.25 -29.87,-15.37 -62.14,-27.89 -96.83,-37.55 -34.7,-9.65 -66.98,-19.75 -96.83,-30.3 -29.86,-10.53 -54.67,-23.27 -74.42,-38.2 -19.78,-14.92 -29.65,-36 -29.65,-63.23 0,-11.42 2.2,-23.49 6.59,-36.23 4.38,-12.75 11.85,-24.6 22.39,-35.57 10.54,-10.97 24.6,-20.2 42.16,-27.67 17.56,-7.45 39.51,-11.2 65.86,-11.2 26.35,0 49.19,3.75 68.5,11.2 19.33,7.47 35.57,16.7 48.76,27.67 13.17,10.97 22.82,23.05 28.98,36.22 6.14,13.18 9.21,25.48 9.21,36.89l75.1 0z"/>
  <path class="fil1" d="M5420.41 3011.42l0 -375.45c0,-15.81 1.32,-36.66 3.95,-62.58 2.64,-25.91 9.44,-51.38 20.42,-76.4 10.97,-25.03 27.89,-46.56 50.72,-64.55 22.84,-18 54.89,-27.01 96.17,-27.01 29.86,0 52.91,6.58 69.17,19.76 16.24,13.17 28.32,29.41 36.22,48.74 7.89,19.33 12.52,39.53 13.83,60.6 1.31,21.08 1.97,39.52 1.97,55.33l0 421.56 111.98 0 0 -375.45c0,-19.32 1.76,-42.38 5.27,-69.17 3.52,-26.78 10.98,-52.03 22.4,-75.74 11.42,-23.71 27.89,-43.91 49.4,-60.6 21.52,-16.68 50.72,-25.03 87.6,-25.03 27.23,0 49.18,3.96 65.88,11.86 16.68,7.9 29.63,19.76 38.86,35.57 9.23,15.81 15.37,35.12 18.44,57.96 3.08,22.83 4.61,49.18 4.61,79.04l0 421.56 111.97 0 0 -459.77c0,-20.2 -2.19,-42.81 -6.58,-67.85 -4.39,-25.02 -13.83,-48.3 -28.32,-69.81 -14.49,-21.51 -35.57,-39.52 -63.23,-54.01 -27.67,-14.49 -64.34,-21.73 -110,-21.73 -13.18,0 -28.56,1.3 -46.12,3.94 -17.56,2.64 -36,8.35 -55.33,17.13 -19.32,8.78 -37.99,21.51 -55.98,38.2 -18,16.68 -33.6,38.65 -46.77,65.87l-9.23 0c-5.26,-14.05 -12.72,-28.32 -22.39,-42.82 -9.66,-14.49 -21.96,-27.87 -36.89,-40.17 -14.92,-12.3 -32.71,-22.4 -53.34,-30.3 -20.65,-7.9 -45.46,-11.85 -74.44,-11.85 -13.17,0 -28.98,1.53 -47.42,4.6 -18.45,3.08 -36.89,9 -55.33,17.79 -18.44,8.79 -35.79,21.08 -52.03,36.88 -16.26,15.81 -29.64,36.46 -40.19,61.92l-5.27 0 0 -106.7 -111.98 0 0 658.68 111.98 0z"/>
  <path class="fil1" d="M7227.77 2683.39c0,45.67 -7.9,89.38 -23.71,131.08 -15.81,41.71 -38.42,78.39 -67.84,110 -29.43,31.61 -65,56.65 -106.71,75.09 -41.72,18.44 -88.5,27.67 -140.3,27.67 -52.7,0 -100.34,-9.44 -142.94,-28.32 -42.59,-18.9 -78.6,-44.14 -108.02,-75.75 -29.42,-31.62 -52.25,-68.29 -68.51,-110.01 -16.24,-41.71 -24.37,-84.97 -24.37,-129.76 0,-45.66 8.13,-89.36 24.37,-131.08 16.26,-41.7 39.09,-78.38 68.51,-110 29.42,-31.6 65.43,-56.86 108.02,-75.74 42.6,-18.89 90.24,-28.32 142.94,-28.32 51.8,0 98.58,9.43 140.3,28.32 41.71,18.88 77.28,44.14 106.71,75.74 29.42,31.62 52.03,68.3 67.84,110 15.81,41.72 23.71,85.42 23.71,131.08zm-125.15 0c0,-61.48 -6.58,-111.32 -19.76,-149.51 -13.17,-38.21 -30.29,-67.85 -51.38,-88.93 -21.08,-21.07 -44.35,-35.35 -69.81,-42.82 -25.47,-7.45 -50.07,-11.2 -73.78,-11.2 -23.72,0 -48.29,3.75 -73.76,11.2 -25.48,7.47 -48.97,21.75 -70.49,42.82 -21.51,21.08 -39.08,50.72 -52.7,88.93 -13.6,38.19 -20.42,88.03 -20.42,149.51 0,60.61 6.82,110.01 20.42,148.21 13.62,38.2 31.19,67.84 52.7,88.91 21.52,21.08 45.01,35.36 70.49,42.82 25.47,7.47 50.04,11.21 73.76,11.21 23.71,0 48.31,-3.74 73.78,-11.21 25.46,-7.46 48.73,-21.74 69.81,-42.82 21.09,-21.07 38.21,-50.71 51.38,-88.91 13.18,-38.2 19.76,-87.6 19.76,-148.21z"/>
  <path class="fil1" d="M7487.26 2778.24c1.75,37.77 11.64,72.02 29.64,102.76 18,30.74 42.6,56.87 73.78,78.39 31.17,21.51 67.84,38.2 110,50.05 42.15,11.85 88.25,17.79 138.31,17.79 50.94,0 96.83,-6.16 137.66,-18.45 40.85,-12.3 75.76,-29.86 104.74,-52.7 28.99,-22.82 51.38,-50.49 67.19,-82.99 15.8,-32.49 23.7,-68.5 23.7,-108.02 0,-54.45 -13.6,-99.02 -40.83,-133.72 -27.22,-34.69 -61.25,-63.67 -102.1,-86.95 -40.83,-23.27 -85.18,-42.8 -133.04,-58.62 -47.88,-15.81 -92.23,-32.48 -133.06,-50.06 -40.85,-17.56 -74.87,-37.76 -102.1,-60.59 -27.23,-22.84 -40.83,-53.14 -40.83,-90.9 0,-21.08 4.6,-40.84 13.83,-59.29 9.23,-18.44 22.83,-34.46 40.83,-48.07 18.01,-13.62 40.19,-24.6 66.53,-32.95 26.34,-8.33 56.64,-12.5 90.89,-12.5 57.1,0 105.62,12.08 145.58,36.22 39.95,24.16 63.45,62.14 70.48,113.95l89.57 0c-5.26,-32.49 -17.11,-61.69 -35.56,-87.59 -18.43,-25.92 -41.71,-47.88 -69.81,-65.87 -28.11,-18 -59.95,-31.62 -95.52,-40.85 -35.56,-9.21 -72.67,-13.83 -111.32,-13.83 -40.39,0 -78.81,5.28 -115.27,15.81 -36.45,10.54 -68.5,25.91 -96.17,46.11 -27.66,20.21 -49.61,45.67 -65.85,76.4 -16.26,30.75 -24.38,65.87 -24.38,105.4 0,51.81 13.17,93.54 39.53,125.14 26.34,31.62 59.48,57.97 99.45,79.04 39.96,21.09 83.22,39.08 129.76,54.02 46.54,14.92 89.8,31.83 129.76,50.71 39.96,18.89 73.11,41.95 99.46,69.18 26.35,27.22 39.52,63.66 39.52,109.33 0,57.09 -20.86,98.8 -62.58,125.15 -41.71,26.36 -97.26,39.53 -166.65,39.53 -55.32,0 -99.67,-7.25 -133.04,-21.74 -33.38,-14.49 -58.84,-31.84 -76.41,-52.04 -17.57,-20.2 -29.42,-41.06 -35.57,-62.58 -6.15,-21.51 -9.66,-39.73 -10.53,-54.67l-89.59 0z"/>
  <polygon class="fil1" points="8650.45,2089.26 8538.46,2089.26 8538.46,3011.42 8650.45,3011.42 "/>
  <path class="fil1" d="M9074.63 2352.74l0 658.68 111.98 0 0 -658.68 -111.98 0zm-15.82 -208.15c0,19.32 7.03,36.01 21.08,50.05 14.06,14.06 30.75,21.09 50.07,21.09 19.32,0 36.01,-7.03 50.07,-21.09 14.04,-14.04 21.07,-30.73 21.07,-50.05 0,-19.32 -7.03,-36.01 -21.07,-50.07 -14.06,-14.04 -30.75,-21.07 -50.07,-21.07 -19.32,0 -36.01,7.03 -50.07,21.07 -14.05,14.06 -21.08,30.75 -21.08,50.07z"/>
  <path class="fil1" d="M9695.1 3011.42l0 -375.45c0,-15.81 1.32,-36.66 3.96,-62.58 2.63,-25.91 9.44,-51.38 20.42,-76.4 10.97,-25.03 27.89,-46.56 50.72,-64.55 22.84,-18 54.89,-27.01 96.17,-27.01 29.86,0 52.91,6.58 69.16,19.76 16.25,13.17 28.32,29.41 36.22,48.74 7.9,19.33 12.53,39.53 13.83,60.6 1.32,21.08 1.98,39.52 1.98,55.33l0 421.56 111.98 0 0 -375.45c0,-19.32 1.76,-42.38 5.27,-69.17 3.52,-26.78 10.98,-52.03 22.4,-75.74 11.42,-23.71 27.88,-43.91 49.4,-60.6 21.52,-16.68 50.72,-25.03 87.6,-25.03 27.22,0 49.18,3.96 65.88,11.86 16.68,7.9 29.63,19.76 38.85,35.57 9.23,15.81 15.38,35.12 18.45,57.96 3.07,22.83 4.6,49.18 4.6,79.04l0 421.56 111.98 0 0 -459.77c0,-20.2 -2.19,-42.81 -6.58,-67.85 -4.39,-25.02 -13.83,-48.3 -28.32,-69.81 -14.49,-21.51 -35.57,-39.52 -63.24,-54.01 -27.67,-14.49 -64.33,-21.73 -109.99,-21.73 -13.19,0 -28.56,1.3 -46.12,3.94 -17.56,2.64 -36.01,8.35 -55.34,17.13 -19.31,8.78 -37.98,21.51 -55.98,38.2 -17.99,16.68 -33.59,38.65 -46.76,65.87l-9.23 0c-5.26,-14.05 -12.73,-28.32 -22.39,-42.82 -9.66,-14.49 -21.96,-27.87 -36.89,-40.17 -14.92,-12.3 -32.71,-22.4 -53.34,-30.3 -20.65,-7.9 -45.46,-11.85 -74.44,-11.85 -13.17,0 -28.98,1.53 -47.43,4.6 -18.44,3.08 -36.89,9 -55.32,17.79 -18.44,8.79 -35.79,21.08 -52.04,36.88 -16.25,15.81 -29.64,36.46 -40.18,61.92l-5.28 0 0 -106.7 -111.97 0 0 658.68 111.97 0z"/>
  <path class="fil1" d="M530.01 4267.94c-20.46,0 -36.29,7.67 -47.51,23.04 -11.22,15.36 -16.82,36.77 -16.82,64.22 0,57.15 21.44,85.72 64.33,85.72 17.98,0 39.78,-4.5 65.37,-13.49l0 45.56c-21.03,8.76 -44.53,13.15 -70.46,13.15 -37.28,0 -65.79,-11.31 -85.54,-33.92 -19.74,-22.6 -29.61,-55.05 -29.61,-97.36 0,-26.65 4.85,-49.99 14.55,-70.02 9.7,-20.04 23.63,-35.4 41.81,-46.1 18.16,-10.68 39.45,-16.03 63.88,-16.03 24.88,0 49.88,6.02 75.01,18.06l-17.53 44.16c-9.58,-4.56 -19.22,-8.53 -28.92,-11.92 -9.7,-3.38 -19.22,-5.07 -28.56,-5.07z"/>
  <polygon class="fil1" points="913.7,4286.68 913.7,4326.82 849.55,4326.82 849.55,4482.63 796.1,4482.63 796.1,4326.82 731.77,4326.82 731.77,4286.68 "/>
  <path class="fil1" d="M1027.99 4286.68l58.54 0 36.98 110.25c3.17,9.58 5.32,20.92 6.49,34l1.04 0c1.3,-12.03 3.81,-23.37 7.55,-34l36.28 -110.25 57.31 0 -82.9 221.01c-7.59,20.45 -18.44,35.76 -32.51,45.93 -14.08,10.17 -30.52,15.25 -49.35,15.25 -9.22,0 -18.28,-0.99 -27.16,-2.98l0 -42.42c6.42,1.52 13.44,2.28 21.03,2.28 9.48,0 17.74,-2.9 24.81,-8.67 7.07,-5.78 12.59,-14.52 16.57,-26.21l3.14 -9.64 -77.82 -194.55z"/>
  <path class="fil1" d="M1488.82 4443.54l0 -116.72 -40.14 0c-2.93,21.73 -6.93,42.37 -12.01,61.87 -5.08,19.52 -12.12,37.8 -21.13,54.85l73.28 0zm82.19 109.38l-48.02 0 0 -70.29 -131.8 0 0 70.29 -48.04 0 0 -109.38 16.48 0c11.22,-17.41 20.64,-39.37 28.23,-65.9 7.59,-26.52 12.91,-56.84 15.95,-90.96l138.46 0 0 156.86 28.74 0 0 109.38z"/>
  <path class="fil1" d="M1762.09 4286.68l0 77.47c0,8.19 -1.34,28.17 -4.03,59.95l90.44 -137.42 64.32 0 0 195.95 -51.71 0 0 -78.17c0,-13.9 1.18,-33.53 3.51,-58.88l-90.08 137.05 -64.16 0 0 -195.95 51.71 0z"/>
  <path class="fil1" d="M2104.59 4482.63l-57.84 0 52.76 -77.46c-12.63,-5.27 -22.18,-12.86 -28.66,-22.8 -6.49,-9.92 -9.73,-21.61 -9.73,-35.05 0,-18.92 7.1,-33.76 21.31,-44.51 14.18,-10.76 33.56,-16.13 58.09,-16.13l91.14 0 0 195.95 -53.45 0 0 -72.9 -29.45 0 -44.17 72.9zm8.94 -134.95c0,8.18 3.21,14.57 9.64,19.19 6.42,4.61 14.84,6.92 25.23,6.92l29.81 0 0 -49.42 -36.63 0c-8.77,0 -15.65,2.12 -20.6,6.39 -4.97,4.26 -7.45,9.91 -7.45,16.92z"/>
  <polygon class="fil1" points="2721.08,4286.68 2779.97,4286.68 2702.32,4380.63 2786.8,4482.63 2726.16,4482.63 2646.06,4383.25 2646.06,4482.63 2592.6,4482.63 2592.6,4286.68 2646.06,4286.68 2646.06,4381.85 "/>
  <path class="fil1" d="M2963.33 4384.31c0,19.39 3.18,34.06 9.55,43.99 6.36,9.92 16.73,14.9 31.11,14.9 14.25,0 24.51,-4.94 30.76,-14.82 6.25,-9.86 9.37,-24.56 9.37,-44.07 0,-19.41 -3.15,-33.96 -9.46,-43.66 -6.31,-9.68 -16.65,-14.53 -31.03,-14.53 -14.25,0 -24.53,4.81 -30.84,14.45 -6.31,9.64 -9.46,24.23 -9.46,43.74zm135.48 0c0,31.9 -8.4,56.84 -25.24,74.84 -16.83,17.99 -40.26,26.99 -70.28,26.99 -18.82,0 -35.4,-4.13 -49.78,-12.36 -14.37,-8.24 -25.41,-20.07 -33.12,-35.49 -7.71,-15.43 -11.57,-33.41 -11.57,-53.98 0,-32.01 8.36,-56.91 25.07,-74.67 16.7,-17.76 40.19,-26.64 70.45,-26.64 18.82,0 35.41,4.09 49.78,12.27 14.37,8.18 25.41,19.93 33.13,35.23 7.71,15.31 11.56,33.25 11.56,53.81z"/>
  <path class="fil1" d="M3328.45 4486.14c-61,0 -91.5,-33.47 -91.5,-100.43 0,-33.3 8.3,-58.74 24.89,-76.33 16.59,-17.58 40.37,-26.38 71.34,-26.38 22.66,0 43,4.44 60.98,13.32l-15.76 41.36c-8.41,-3.38 -16.24,-6.16 -23.49,-8.32 -7.25,-2.17 -14.49,-3.24 -21.73,-3.24 -27.82,0 -41.72,19.75 -41.72,59.24 0,38.33 13.9,57.49 41.72,57.49 10.29,0 19.81,-1.38 28.57,-4.12 8.75,-2.74 17.52,-7.04 26.29,-12.88l0 45.74c-8.65,5.49 -17.38,9.29 -26.2,11.4 -8.83,2.09 -19.95,3.15 -33.39,3.15z"/>
  <path class="fil1" d="M3786.28 4482.63l-49.95 0 0 -154.42 -2.8 10.88c-6.31,24.65 -11.97,43.28 -17.01,55.91l-34.7 87.63 -38.03 0 -35.23 -88.34c-5.03,-12.85 -10.41,-30.89 -16.13,-54.15l-3.33 -11.93 0 154.42 -49.78 0 0 -195.95 73.61 0 33.67 83.6c3.5,9 6.74,19.34 9.72,31.03 2.98,11.69 4.99,21.67 6.04,29.97 3.86,-17.53 6.87,-30.11 9.04,-37.77 2.15,-7.65 4.52,-14.69 7.1,-21.12 2.56,-6.43 14.18,-35 34.86,-85.71l72.92 0 0 195.95z"/>
  <path class="fil1" d="M4029.41 4321.03c-11.34,0 -20.22,3.61 -26.65,10.79 -6.43,7.18 -10.1,17.38 -11.03,30.58l75.01 0c-0.24,-13.2 -3.69,-23.4 -10.34,-30.58 -6.66,-7.18 -15.66,-10.79 -26.99,-10.79zm7.53 165.11c-31.54,0 -56.19,-8.71 -73.95,-26.12 -17.78,-17.41 -26.65,-42.05 -26.65,-73.95 0,-32.84 8.2,-58.23 24.62,-76.17 16.42,-17.93 39.12,-26.9 68.09,-26.9 27.69,0 49.25,7.89 64.69,23.66 15.42,15.77 23.12,37.57 23.12,65.38l0 25.94 -126.37 0c0.59,15.18 5.09,27.05 13.51,35.58 8.41,8.52 20.21,12.8 35.39,12.8 11.81,0 22.96,-1.24 33.48,-3.69 10.52,-2.45 21.5,-6.36 32.95,-11.74l0 41.36c-9.35,4.67 -19.34,8.14 -29.98,10.43 -10.62,2.28 -23.6,3.42 -38.9,3.42z"/>
  <polygon class="fil1" points="4428.34,4286.68 4428.34,4326.82 4364.19,4326.82 4364.19,4482.63 4310.74,4482.63 4310.74,4326.82 4246.41,4326.82 4246.41,4286.68 "/>
  <path class="fil1" d="M4613.29 4384.31c0,19.39 3.17,34.06 9.54,43.99 6.37,9.92 16.74,14.9 31.11,14.9 14.26,0 24.52,-4.94 30.77,-14.82 6.25,-9.86 9.37,-24.56 9.37,-44.07 0,-19.41 -3.15,-33.96 -9.46,-43.66 -6.31,-9.68 -16.66,-14.53 -31.03,-14.53 -14.26,0 -24.53,4.81 -30.84,14.45 -6.31,9.64 -9.46,24.23 -9.46,43.74zm135.48 0c0,31.9 -8.41,56.84 -25.24,74.84 -16.83,17.99 -40.27,26.99 -70.28,26.99 -18.82,0 -35.41,-4.13 -49.78,-12.36 -14.37,-8.24 -25.41,-20.07 -33.12,-35.49 -7.71,-15.43 -11.57,-33.41 -11.57,-53.98 0,-32.01 8.35,-56.91 25.07,-74.67 16.7,-17.76 40.18,-26.64 70.44,-26.64 18.83,0 35.41,4.09 49.78,12.27 14.37,8.18 25.42,19.93 33.14,35.23 7.71,15.31 11.56,33.25 11.56,53.81z"/>
  <path class="fil1" d="M5074.28 4482.63l-53.47 0 0 -155.81 -49.25 0c-3.73,43.82 -8.29,76.5 -13.67,98.07 -5.37,21.55 -12.53,37.15 -21.47,46.79 -8.94,9.64 -20.65,14.46 -35.14,14.46 -12.38,0 -22.55,-1.87 -30.5,-5.61l0 -42.77c5.72,2.35 11.46,3.51 17.18,3.51 6.66,0 12.24,-4.79 16.73,-14.37 4.51,-9.58 8.54,-25.57 12.11,-47.94 3.55,-22.38 6.62,-53.14 9.19,-92.28l148.29 0 0 195.95z"/>
  <path class="fil1" d="M5278.84 4384.31c0,19.39 3.18,34.06 9.55,43.99 6.36,9.92 16.73,14.9 31.11,14.9 14.25,0 24.51,-4.94 30.76,-14.82 6.26,-9.86 9.37,-24.56 9.37,-44.07 0,-19.41 -3.15,-33.96 -9.46,-43.66 -6.31,-9.68 -16.65,-14.53 -31.03,-14.53 -14.25,0 -24.53,4.81 -30.84,14.45 -6.31,9.64 -9.46,24.23 -9.46,43.74zm135.48 0c0,31.9 -8.4,56.84 -25.23,74.84 -16.84,17.99 -40.27,26.99 -70.29,26.99 -18.82,0 -35.4,-4.13 -49.78,-12.36 -14.37,-8.24 -25.41,-20.07 -33.12,-35.49 -7.71,-15.43 -11.57,-33.41 -11.57,-53.98 0,-32.01 8.36,-56.91 25.07,-74.67 16.7,-17.76 40.19,-26.64 70.45,-26.64 18.82,0 35.41,4.09 49.78,12.27 14.37,8.18 25.41,19.93 33.13,35.23 7.71,15.31 11.56,33.25 11.56,53.81z"/>
  <polygon class="fil1" points="5699.7,4286.68 5699.7,4326.82 5617.85,4326.82 5617.85,4482.63 5564.39,4482.63 5564.39,4286.68 "/>
  <path class="fil1" d="M5893.57 4286.68l0 77.47c0,8.19 -1.34,28.17 -4.03,59.95l90.44 -137.42 64.32 0 0 195.95 -51.7 0 0 -78.17c0,-13.9 1.17,-33.53 3.5,-58.88l-90.08 137.05 -64.16 0 0 -195.95 51.71 0z"/>
  <path class="fil1" d="M6257.99 4286.68l0 77.47c0,8.19 -1.34,28.17 -4.02,59.95l90.43 -137.42 64.33 0 0 195.95 -51.71 0 0 -78.17c0,-13.9 1.18,-33.53 3.51,-58.88l-90.08 137.05 -64.17 0 0 -195.95 51.71 0z"/>
  <path class="fil1" d="M6821.54 4286.68l0 77.47c0,8.19 -1.34,28.17 -4.02,59.95l90.43 -137.42 64.33 0 0 195.95 -51.71 0 0 -78.17c0,-13.9 1.18,-33.53 3.51,-58.88l-90.09 137.05 -64.16 0 0 -195.95 51.71 0z"/>
  <polygon class="fil1" points="7461.86,4286.68 7520.75,4286.68 7443.11,4380.63 7527.59,4482.63 7466.94,4482.63 7386.84,4383.25 7386.84,4482.63 7333.38,4482.63 7333.38,4286.68 7386.84,4286.68 7386.84,4381.85 "/>
  <path class="fil1" d="M7704.11 4384.31c0,19.39 3.18,34.06 9.55,43.99 6.37,9.92 16.74,14.9 31.11,14.9 14.25,0 24.52,-4.94 30.77,-14.82 6.25,-9.86 9.37,-24.56 9.37,-44.07 0,-19.41 -3.16,-33.96 -9.47,-43.66 -6.31,-9.68 -16.65,-14.53 -31.02,-14.53 -14.26,0 -24.53,4.81 -30.84,14.45 -6.31,9.64 -9.47,24.23 -9.47,43.74zm135.48 0c0,31.9 -8.4,56.84 -25.23,74.84 -16.83,17.99 -40.27,26.99 -70.28,26.99 -18.83,0 -35.41,-4.13 -49.78,-12.36 -14.38,-8.24 -25.42,-20.07 -33.13,-35.49 -7.71,-15.43 -11.57,-33.41 -11.57,-53.98 0,-32.01 8.36,-56.91 25.07,-74.67 16.71,-17.76 40.19,-26.64 70.45,-26.64 18.82,0 35.41,4.09 49.78,12.27 14.37,8.18 25.41,19.93 33.14,35.23 7.71,15.31 11.55,33.25 11.55,53.81z"/>
  <path class="fil1" d="M8097.27 4486.14c-23.03,0 -41.07,-8.35 -54.16,-25.06l-2.8 0c1.87,16.35 2.8,25.82 2.8,28.39l0 79.4 -53.46 0 0 -282.19 43.48 0 7.52 25.42 2.46 0c12.51,-19.4 31.03,-29.1 55.56,-29.1 23.14,0 41.26,8.94 54.33,26.82 13.09,17.88 19.64,42.7 19.64,74.49 0,20.92 -3.08,39.08 -9.21,54.5 -6.13,15.43 -14.86,27.17 -26.2,35.23 -11.33,8.06 -24.66,12.1 -39.96,12.1zm-15.77 -160.37c-13.2,0 -22.84,4.06 -28.93,12.18 -6.07,8.12 -9.22,21.53 -9.46,40.22l0 5.78c0,21.04 3.13,36.11 9.38,45.22 6.25,9.12 16.15,13.68 29.7,13.68 23.95,0 35.94,-19.75 35.94,-59.24 0,-19.28 -2.96,-33.74 -8.86,-43.38 -5.89,-9.65 -15.16,-14.46 -27.77,-14.46z"/>
  <path class="fil1" d="M8430.31 4486.14c-23.02,0 -41.07,-8.35 -54.16,-25.06l-2.8 0c1.87,16.35 2.8,25.82 2.8,28.39l0 79.4 -53.46 0 0 -282.19 43.48 0 7.52 25.42 2.46 0c12.52,-19.4 31.03,-29.1 55.56,-29.1 23.14,0 41.26,8.94 54.34,26.82 13.08,17.88 19.63,42.7 19.63,74.49 0,20.92 -3.07,39.08 -9.21,54.5 -6.13,15.43 -14.86,27.17 -26.2,35.23 -11.33,8.06 -24.66,12.1 -39.96,12.1zm-15.77 -160.37c-13.2,0 -22.84,4.06 -28.92,12.18 -6.08,8.12 -9.23,21.53 -9.47,40.22l0 5.78c0,21.04 3.13,36.11 9.39,45.22 6.24,9.12 16.14,13.68 29.69,13.68 23.96,0 35.94,-19.75 35.94,-59.24 0,-19.28 -2.96,-33.74 -8.85,-43.38 -5.9,-9.65 -15.16,-14.46 -27.78,-14.46z"/>
  <path class="fil1" d="M8736.89 4321.03c-11.33,0 -20.22,3.61 -26.65,10.79 -6.42,7.18 -10.1,17.38 -11.03,30.58l75.02 0c-0.25,-13.2 -3.7,-23.4 -10.35,-30.58 -6.66,-7.18 -15.65,-10.79 -26.99,-10.79zm7.54 165.11c-31.55,0 -56.2,-8.71 -73.96,-26.12 -17.77,-17.41 -26.65,-42.05 -26.65,-73.95 0,-32.84 8.2,-58.23 24.63,-76.17 16.41,-17.93 39.11,-26.9 68.09,-26.9 27.68,0 49.25,7.89 64.68,23.66 15.42,15.77 23.13,37.57 23.13,65.38l0 25.94 -126.37 0c0.59,15.18 5.08,27.05 13.5,35.58 8.42,8.52 20.21,12.8 35.39,12.8 11.81,0 22.97,-1.24 33.48,-3.69 10.52,-2.45 21.51,-6.36 32.96,-11.74l0 41.36c-9.36,4.67 -19.34,8.14 -29.98,10.43 -10.63,2.28 -23.6,3.42 -38.9,3.42z"/>
  <polygon class="fil1" points="9102.17,4286.68 9161.06,4286.68 9083.42,4380.63 9167.9,4482.63 9107.26,4482.63 9027.16,4383.25 9027.16,4482.63 8973.7,4482.63 8973.7,4286.68 9027.16,4286.68 9027.16,4381.85 "/>
  <polygon class="fil1" points="9487.09,4443.54 9515.66,4443.54 9515.66,4552.92 9467.64,4552.92 9467.64,4482.63 9301.83,4482.63 9301.83,4286.68 9355.29,4286.68 9355.29,4442.5 9433.46,4442.5 9433.46,4286.68 9487.09,4286.68 "/>
  <path class="fil1" d="M9706.39 4286.68l0 77.47c0,8.19 -1.34,28.17 -4.02,59.95l90.43 -137.42 64.33 0 0 195.95 -51.71 0 0 -78.17c0,-13.9 1.18,-33.53 3.51,-58.88l-90.09 137.05 -64.16 0 0 -195.95 51.71 0z"/>
  <path class="fil1" d="M10070.8 4286.68l0 77.47c0,8.19 -1.34,28.17 -4.02,59.95l90.43 -137.42 64.33 0 0 195.95 -51.71 0 0 -78.17c0,-13.9 1.18,-33.53 3.51,-58.88l-90.08 137.05 -64.17 0 0 -195.95 51.71 0z"/>
  <path class="fil1" d="M10725.85 4285.63c32.72,2.68 58.37,12.79 76.94,30.32 18.58,17.52 27.86,40.43 27.86,68.7 0,28.87 -9.17,51.97 -27.51,69.32 -18.35,17.36 -44.11,27.38 -77.29,30.07l0 84.83 -49.61 0 0 -84.83c-33.06,-3.04 -58.91,-13.41 -77.55,-31.11 -18.64,-17.71 -27.96,-40.46 -27.96,-68.28 0,-29.56 8.99,-52.89 26.99,-70.02 18,-17.11 44.17,-26.78 78.52,-29l0 -75.71 49.61 0 0 75.71zm-100.09 99.02c0,16.48 4.51,29.89 13.5,40.24 8.99,10.33 21.33,16.55 36.98,18.65l0 -117.77c-15.06,1.98 -27.26,8.35 -36.53,19.1 -9.3,10.76 -13.95,24.01 -13.95,39.78zm150.03 0c0,-15.41 -4.38,-28.41 -13.14,-38.99 -8.75,-10.57 -21.03,-16.98 -36.8,-19.19l0 117.07c15.53,-2.1 27.74,-8.34 36.63,-18.75 8.87,-10.39 13.31,-23.77 13.31,-40.14z"/>
  <path class="fil1" d="M11032.43 4286.68l0 77.47c0,8.19 -1.34,28.17 -4.03,59.95l90.44 -137.42 64.32 0 0 195.95 -51.71 0 0 -78.17c0,-13.9 1.18,-33.53 3.51,-58.88l-90.08 137.05 -64.16 0 0 -195.95 51.71 0z"/>
  <polygon class="fil1" points="11480.45,4286.68 11480.45,4326.82 11398.59,4326.82 11398.59,4482.63 11345.13,4482.63 11345.13,4286.68 "/>
  <path class="fil1" d="M11594.58 4286.68l58.53 0 36.99 110.25c3.16,9.58 5.32,20.92 6.48,34l1.05 0c1.29,-12.03 3.8,-23.37 7.54,-34l36.28 -110.25 57.31 0 -82.9 221.01c-7.59,20.45 -18.43,35.76 -32.51,45.93 -14.08,10.17 -30.52,15.25 -49.34,15.25 -9.23,0 -18.28,-0.99 -27.17,-2.98l0 -42.42c6.43,1.52 13.44,2.28 21.04,2.28 9.47,0 17.73,-2.9 24.81,-8.67 7.06,-5.78 12.58,-14.52 16.56,-26.21l3.14 -9.64 -77.81 -194.55z"/>
  <path class="fil1" d="M12040.31 4486.14c-23.02,0 -41.07,-8.35 -54.16,-25.06l-2.8 0c1.87,16.35 2.8,25.82 2.8,28.39l0 79.4 -53.46 0 0 -282.19 43.48 0 7.52 25.42 2.46 0c12.52,-19.4 31.03,-29.1 55.56,-29.1 23.14,0 41.26,8.94 54.34,26.82 13.09,17.88 19.63,42.7 19.63,74.49 0,20.92 -3.07,39.08 -9.2,54.5 -6.14,15.43 -14.87,27.17 -26.21,35.23 -11.33,8.06 -24.66,12.1 -39.96,12.1zm-15.77 -160.37c-13.2,0 -22.84,4.06 -28.92,12.18 -6.08,8.12 -9.23,21.53 -9.47,40.22l0 5.78c0,21.04 3.14,36.11 9.39,45.22 6.25,9.12 16.14,13.68 29.69,13.68 23.96,0 35.94,-19.75 35.94,-59.24 0,-19.28 -2.96,-33.74 -8.85,-43.38 -5.9,-9.65 -15.16,-14.46 -27.78,-14.46z"/>
  <path class="fil1" d="M12319.2 4362.4l25.76 0c29.91,0 52.06,4.79 66.44,14.37 14.37,9.58 21.55,24.07 21.55,43.47 0,20.68 -7.18,36.25 -21.55,46.7 -14.38,10.47 -35.88,15.69 -64.51,15.69l-81.16 0 0 -195.95 53.47 0 0 75.72zm60.29 58.54c0,-7.6 -3.04,-13.1 -9.11,-16.49 -6.08,-3.37 -15.14,-5.07 -27.17,-5.07l-24.01 0 0 46.27 24.7 0c23.72,0 35.59,-8.24 35.59,-24.71zm135.3 61.69l-53.45 0 0 -195.95 53.45 0 0 195.95z"/>
 </g>
</svg>
