<?xml version="1.0" encoding="UTF-8"?>
<!DOCTYPE svg PUBLIC "-//W3C//DTD SVG 1.1//EN" "http://www.w3.org/Graphics/SVG/1.1/DTD/svg11.dtd">
<!-- Creator: CorelDRAW 2019 (64-Bit) -->
<svg xmlns="http://www.w3.org/2000/svg" xml:space="preserve" width="1112px" height="500px" version="1.1" style="shape-rendering:geometricPrecision; text-rendering:geometricPrecision; image-rendering:optimizeQuality; fill-rule:evenodd; clip-rule:evenodd"
viewBox="0 0 1112 499.94"
 xmlns:xlink="http://www.w3.org/1999/xlink">
 <defs>
  <style type="text/css">
   <![CDATA[
    .str0 {stroke:#8264B8;stroke-width:13.33;stroke-miterlimit:4}
    .fil0 {fill:none;fill-rule:nonzero}
    .fil1 {fill:#8264B8;fill-rule:nonzero}
   ]]>
  </style>
 </defs>
 <g id="Слой_x0020_1">
  <metadata id="CorelCorpID_0Corel-Layer"/>
  <line class="fil0 str0" x1="20.31" y1="329.82" x2="1086.56" y2= "329.82" />
  <line class="fil0 str0" x1="20.31" y1="96.28" x2="1086.56" y2= "96.28" />
  <path class="fil1" d="M160.8 262.89c0.18,1.36 0.63,3.98 0.09,7.15 -0.64,3.43 -2.1,5.78 -2.83,7.05 -2.01,3.25 -4.74,6.06 -8.2,8.23 -0.19,0.18 -0.46,0.18 -0.73,0.18 -0.28,0 -0.64,-0.09 -0.91,-0.37 -0.46,-0.36 -0.64,-0.99 -0.37,-1.53 0.73,-1.81 1.09,-3.62 1.09,-5.43 0,-1.99 -0.45,-3.34 -0.91,-4.79 -0.54,-1.54 -1,-3.16 -0.82,-5.33 0.28,-2.44 1.55,-4.8 3.74,-7.06 0.46,-0.45 1.09,-0.54 1.55,-0.27 0.18,0.09 4.19,2.17 2.64,9.77 -0.18,0.72 -0.82,1.17 -1.64,1.08 -0.73,-0.18 -1.18,-0.9 -1.09,-1.62 0.64,-3.44 0,-5.25 -0.55,-6.15 -1.18,1.44 -1.91,2.98 -2.09,4.43 -0.19,1.53 0.18,2.71 0.72,4.16 0.46,1.53 1.1,3.16 1.1,5.6 0,0.82 -0.09,1.63 -0.18,2.44 1.64,-1.44 3,-3.16 4.19,-4.97 0.73,-1.17 1.91,-3.16 2.46,-6.15 0.55,-2.8 0.18,-4.97 -0.09,-6.24 -0.55,-3.34 -1.82,-6.51 -3.83,-9.4 -0.46,-0.63 -0.27,-1.45 0.37,-1.9 0.63,-0.45 1.45,-0.27 1.91,0.36 2.28,3.53 3.74,7.06 4.38,10.76zm-9.85 -10.48c-0.64,-0.37 -1.46,-0.19 -1.91,0.45 -2.56,3.98 -6.02,7.5 -10.03,10.21 -3.1,1.99 -6.56,3.26 -10.21,4.52 -4.56,1.54 -9.21,3.17 -13.04,6.51 -3.73,3.17 -6.29,7.69 -7.65,13.29 -0.19,0.55 0.09,1.18 0.63,1.45 0.19,0.09 0.46,0.18 0.64,0.18 0.37,0 0.64,-0.09 0.91,-0.36 2.47,-2.35 5.2,-3.98 8.12,-4.88 2.55,-0.82 4.65,-0.91 6.74,-1 2.83,-0.09 5.38,-0.18 7.84,-2.17 1.83,-1.44 3.19,-3.7 3.83,-6.6 0.09,-0.36 0,-0.81 -0.27,-1.17 -0.28,-0.36 -0.64,-0.54 -1.01,-0.54 -2.18,-0.09 -4.28,0.18 -6.38,0.72 -1.73,0.45 -3.46,1.17 -5.1,1.99 -0.64,0.36 -0.91,1.17 -0.55,1.81 0.37,0.63 1.19,0.9 1.82,0.54 1.37,-0.81 2.92,-1.36 4.47,-1.81 1.19,-0.36 2.46,-0.54 3.74,-0.54 -0.55,1.44 -1.37,2.62 -2.37,3.43 -1.73,1.36 -3.65,1.45 -6.2,1.54 -2.19,0.09 -4.65,0.18 -7.47,1.09 -1.92,0.63 -3.74,1.44 -5.47,2.62 1.27,-3.17 3.1,-5.7 5.37,-7.69 3.47,-2.98 7.66,-4.43 12.22,-5.96 3.65,-1.27 7.47,-2.54 10.76,-4.8 4.37,-2.89 8.11,-6.69 10.84,-10.94 0.55,-0.72 0.37,-1.53 -0.27,-1.89zm7.66 -24.51c0.36,-0.09 0.82,0 1.18,0.28 0.82,0.72 1.46,1.53 2.01,2.44 1.73,2.8 2.09,6.23 1.09,10.12 -0.55,2.26 -1.64,4.34 -3.19,6.24 -0.27,0.27 -0.64,0.54 -1.09,0.54 -13.13,-0.27 -16.78,-9.04 -17.87,-13.74 -0.55,-0.18 -1,-0.36 -1.37,-0.72 -4.01,2.35 -9.2,7.32 -6.65,17.09 1.64,0.54 3.37,0.81 5.1,0.72 3.28,-0.18 5.84,-1.27 7.57,-3.17 0.55,-0.63 1,-1.26 1.37,-1.98 0.36,-0.64 1.09,-1 1.82,-0.64 0.64,0.36 1,1.09 0.64,1.81 -0.46,1 -1.1,1.9 -1.73,2.62 -2.19,2.44 -5.38,3.8 -9.48,4.07 -0.28,0 -0.64,0 -0.92,0 -2,0 -4.1,-0.36 -6.01,-1.17 -0.37,-0.19 -0.73,-0.46 -0.82,-0.91 -1,-3.61 -1.19,-6.69 -0.73,-9.31 -0.27,0.27 -0.64,0.45 -1,0.45 -0.1,0 -0.1,0 -0.19,0 -1.09,-0.09 -2.09,-0.36 -3.1,-0.81 -3,-1.27 -5.37,-3.89 -6.83,-7.6 -0.91,-2.17 -1.28,-4.52 -1.1,-6.87 0,-0.45 0.28,-0.81 0.64,-0.99 2.92,-1.99 5.56,-2.99 8.11,-3.53 -0.18,-0.18 -0.36,-0.45 -0.36,-0.63 -0.27,-1.09 -0.37,-2.08 -0.27,-3.17 0.18,-3.25 1.82,-6.32 4.92,-9.04 1.73,-1.53 3.83,-2.71 6.2,-3.34 0.36,-0.09 0.82,0 1.18,0.18 10.58,7.59 8.66,16.91 6.84,21.34 0.36,0.45 0.64,0.99 0.73,1.53 4.65,0.45 11.76,-0.63 15.5,-10.03 -1.01,-1.45 -2.28,-2.63 -3.74,-3.62 -1.1,-0.63 -4.29,-2.62 -8.02,-1.81 -0.73,0.18 -1.55,0.45 -2.28,0.91 -0.64,0.36 -1.46,0.09 -1.83,-0.55 -0.36,-0.63 -0.09,-1.44 0.55,-1.8 0.91,-0.55 1.91,-0.91 3.01,-1.18 3.19,-0.72 6.56,0 10.03,2.17 2,1.27 3.64,2.89 5.01,4.97 0.18,0.36 0.27,0.82 0.09,1.18 -1.37,3.52 -3.1,6.15 -5.01,7.95zm-17.32 3.17c0.18,0.18 0.45,0.18 0.64,0.18 0.09,0 0.36,-0.09 0.45,-0.27 0.09,-0.09 0.18,-0.18 0.18,-0.36 0.09,-0.18 0,-0.55 -0.27,-0.73 0,0 -0.09,-0.09 -0.18,-0.09 -0.28,-0.18 -0.64,-0.09 -0.82,0.09 0,0 -0.09,0.09 -0.09,0.09 -0.19,0.18 -0.28,0.55 -0.1,0.82 0,0.09 0.1,0.18 0.19,0.27zm-13.13 -8.5c5.74,-0.36 10.03,2.53 12.4,4.61 0.45,-0.18 0.91,-0.27 1.46,-0.18 1.73,-4.25 2.64,-11.39 -5.47,-17.54 -1.73,0.54 -3.19,1.45 -4.47,2.62 -2.46,2.17 -3.83,4.61 -4.01,7.14 0,0.82 0,1.54 0.18,2.36 0.18,0.36 0.09,0.72 -0.09,0.99zm10.12 8.05c0,-0.55 0.09,-1 0.27,-1.54 -3.46,-3.07 -9.93,-6.33 -18.5,-0.9 0,1.8 0.27,3.43 0.91,5.06 1.28,3.07 3.1,5.15 5.38,6.15 0.73,0.27 1.55,0.54 2.37,0.63 0.55,0.09 1,0.45 1.09,0.9 1.55,-5.6 5.65,-8.77 8.48,-10.3zm19.32 -1.72c-3.55,2.89 -7.56,3.62 -10.75,3.62 -0.82,0 -1.55,-0.1 -2.19,-0.1 -0.09,0.19 -0.18,0.28 -0.27,0.37 -0.28,0.27 -0.55,0.45 -0.82,0.63 1,4.52 4.28,10.85 14.49,11.39 1.09,-1.45 1.82,-2.98 2.19,-4.61 0.82,-3.25 0.55,-5.97 -0.82,-8.14 -0.46,-0.72 -0.91,-1.26 -1.55,-1.81 -0.37,-0.36 -0.46,-0.9 -0.28,-1.35zm-47.76 12.93c-4.38,1.99 -8.94,2.98 -13.68,3.07 -0.09,0 -0.09,0 -0.18,0 -4.74,0 -9.39,-0.99 -13.76,-2.98 -0.37,-0.18 -0.64,-0.54 -0.73,-0.91 -0.09,-0.36 0,-0.81 0.27,-1.17l2.28 -3.08c1.19,-1.53 2.64,-2.53 4.29,-3.07 0.36,-0.09 0.91,-0.27 1.73,-0.27 1.91,-0.18 3.01,0.18 4.01,0.54 0.64,0.18 1.18,0.36 2.09,0.45 0.83,0 1.37,-0.18 2.1,-0.36 1,-0.27 2.1,-0.63 3.92,-0.45 0.82,0.09 1.46,0.27 2.19,0.54 1.37,0.55 2.64,1.54 3.65,2.81l2.37 2.98c0.27,0.36 0.36,0.72 0.27,1.17 -0.18,0.19 -0.46,0.55 -0.82,0.73zm-2.74 -1.81l-1.27 -1.63c-0.73,-0.9 -1.55,-1.54 -2.46,-1.9 -0.46,-0.18 -0.91,-0.27 -1.46,-0.36 -1.37,-0.09 -2.01,0.09 -2.83,0.36 -0.73,0.27 -1.64,0.46 -2.92,0.46 -1.27,0 -2.09,-0.28 -2.82,-0.55 -0.82,-0.27 -1.55,-0.54 -2.92,-0.36 -0.55,0.09 -0.91,0.09 -1.18,0.18 -1.1,0.36 -2.1,1.09 -2.92,2.08l-1.28 1.63c3.56,1.45 7.3,2.08 11.03,2.08 0,0 0.09,0 0.09,0 3.74,0.09 7.39,-0.63 10.94,-1.99zm-1.64 7.5l-2.73 2.17c-0.82,0.46 -1.83,0.82 -2.83,1 -0.36,0.09 -0.82,0.09 -1.27,0.09l-5.02 0c-0.18,0 -0.45,0 -0.64,0 -1,-0.09 -2,-0.36 -2.91,-0.82l-3.19 -2.44c-0.64,-0.45 -1.46,-0.36 -1.92,0.27 -0.45,0.64 -0.36,1.45 0.28,1.9l3.28 2.53c0.09,0.1 0.18,0.1 0.18,0.1 1.28,0.63 2.64,0.99 4.01,1.17 0.27,0 0.64,0 0.91,0l5.02 0c0.54,0 1.09,0 1.64,-0.09 1.36,-0.18 2.64,-0.63 3.83,-1.36 0.09,0 0.09,-0.09 0.18,-0.09l2.82 -2.26c0.55,-0.45 0.73,-1.35 0.19,-1.9 -0.37,-0.63 -1.28,-0.72 -1.83,-0.27zm-18.32 -30.92c-0.73,0.18 -1.18,0.91 -1,1.63 0.27,1.18 1,1.63 2.37,2.53 0.45,0.27 0.91,0.63 1.55,1 1.46,0.99 3.46,1.53 5.56,1.53 2,0 4.01,-0.54 5.47,-1.53 0.64,-0.46 1.09,-0.73 1.55,-1 1.36,-0.9 2.09,-1.35 2.37,-2.53 0.18,-0.72 -0.28,-1.45 -1.01,-1.63 -0.72,-0.18 -1.45,0.27 -1.64,1 -0.09,0.18 -0.63,0.54 -1.27,0.9 -0.46,0.27 -0.91,0.63 -1.55,1.09 -2.01,1.35 -5.93,1.35 -7.93,0 -0.64,-0.46 -1.19,-0.82 -1.55,-1.09 -0.55,-0.36 -1.19,-0.72 -1.28,-0.9 -0.18,-0.73 -0.91,-1.18 -1.64,-1zm-27.53 -19.07c-0.27,0.72 0.09,1.44 0.82,1.71 0.18,0.09 0.37,0.09 0.46,0.09 0.54,0 1.09,-0.36 1.27,-0.9 0.64,-1.54 2.46,-2.17 3.47,-2.35 0.36,0.09 0.73,0.18 1.18,0.27 1.37,0.27 2.65,0.36 3.65,0.36 0.82,0 1.55,-0.09 2,-0.09 1.37,-0.09 2.37,-0.36 7.11,-1.62 1.65,-0.46 3.01,-0.82 3.92,-1.09 0.73,-0.18 1.19,-0.99 0.92,-1.72 -0.19,-0.72 -1.01,-1.17 -1.74,-0.9 -1,0.27 -2.37,0.63 -3.92,1.08 -4.65,1.27 -5.47,1.45 -6.56,1.54 -0.82,0.09 -2.64,0.27 -4.74,-0.27 -2.19,-0.45 -4.19,-1.54 -6.02,-3.08 -0.82,-0.63 -2.55,-1.71 -5.01,-1.62 -2.19,0 -3.83,0.99 -4.56,1.62 -0.63,0.46 -0.73,1.27 -0.27,1.9 0.46,0.64 1.28,0.73 1.91,0.27 0.46,-0.36 1.55,-0.99 3.01,-1.08 1.64,0 2.83,0.72 3.19,1.08 0.82,0.73 1.64,1.27 2.56,1.81 -1.19,0.73 -2.19,1.63 -2.65,2.99zm74.75 -5.79c1.46,0 2.46,0.63 3.01,1.09 0.64,0.45 1.46,0.36 1.91,-0.28 0.46,-0.63 0.37,-1.44 -0.27,-1.9 -0.73,-0.54 -2.37,-1.53 -4.56,-1.62 -2.46,-0.09 -4.19,0.99 -5.01,1.72 -1.83,1.53 -3.83,2.53 -6.02,3.07 -2.1,0.45 -3.92,0.36 -4.74,0.27 -1.09,-0.09 -1.91,-0.27 -6.56,-1.54 -1.64,-0.45 -2.92,-0.81 -3.92,-1.08 -0.73,-0.18 -1.46,0.18 -1.73,0.9 -0.19,0.73 0.18,1.45 0.91,1.72 1,0.27 2.37,0.63 3.92,1.09 4.65,1.26 5.74,1.53 7.11,1.62 0.45,0 1.09,0.09 2,0.09 1,0 2.28,-0.09 3.65,-0.36 0.36,-0.09 0.73,-0.18 1.18,-0.27 1.01,0.18 2.83,0.81 3.47,2.35 0.18,0.54 0.73,0.91 1.27,0.91 0.19,0 0.37,0 0.46,-0.09 0.73,-0.28 1.09,-1.09 0.82,-1.72 -0.55,-1.36 -1.55,-2.26 -2.55,-2.9 0.91,-0.54 1.73,-1.08 2.46,-1.8 0.36,-0.46 1.55,-1.27 3.19,-1.27zm-6.02 64.1c0.55,-0.54 0.64,-1.35 0.09,-1.9 -0.54,-0.54 -1.36,-0.63 -1.91,-0.09l-6.38 5.7c-4.29,3.61 -9.03,7.32 -14.04,10.76 -6.47,4.52 -14.49,4.52 -20.97,0 -12.76,-8.95 -34.82,-26.49 -39.56,-44.21 -2.91,-10.76 -4.74,-23.42 -5.1,-34.72l0.18 -0.45c4.74,-12.93 9.57,-26.22 30.17,-42.86 2.92,-2.35 8.3,-5.87 17.05,-9.13 0.73,-0.27 1.09,-1.08 0.82,-1.72 -0.27,-0.72 -1.09,-1.08 -1.73,-0.81 -7.2,2.71 -13.4,5.97 -17.87,9.58 -21.15,17.09 -26.16,30.83 -30.99,44.03l-0.28 0.63c-1.09,2.54 -3.09,4.62 -5.28,6.7 -1.28,1.26 -2.65,2.62 -3.74,4.15 -5.93,7.69 -6.02,19.26 -0.27,27.04 0.54,0.72 1.18,1.44 1.73,2.17 1.09,1.35 2.19,2.53 2.82,3.98 1.46,2.98 1.28,6.6 -0.54,9.4 -0.46,0.63 -0.28,1.44 0.36,1.9 0.28,0.18 0.46,0.18 0.73,0.18 0.46,0 0.91,-0.18 1.19,-0.64 2.28,-3.52 2.55,-8.22 0.73,-12.02 -0.82,-1.72 -2.1,-3.16 -3.19,-4.52 -0.55,-0.72 -1.19,-1.36 -1.64,-2.08 -5.11,-6.87 -5.02,-17.09 0.27,-23.78 1,-1.35 2.28,-2.53 3.55,-3.89 1.19,-1.17 2.37,-2.35 3.47,-3.7 0.63,10.39 2.46,21.61 5.01,31.28 5.01,18.53 27.62,36.62 40.66,45.75 3.73,2.62 7.93,3.88 12.03,3.88 4.1,0 8.39,-1.26 12.12,-3.88 5.11,-3.53 9.85,-7.24 14.31,-10.94l6.2 -5.79zm-71.01 -82.72c0.09,0 8.57,-1.27 15.23,0 6.29,1.17 9.11,4.7 9.2,4.79 0.28,0.36 0.64,0.54 1.1,0.54 0.27,0 0.54,-0.09 0.82,-0.27 0.63,-0.45 0.73,-1.27 0.27,-1.9 -0.09,-0.18 -3.37,-4.43 -10.85,-5.79 -7.2,-1.35 -15.77,-0.09 -16.13,0 -0.73,0.09 -1.28,0.82 -1.19,1.54 0.09,0.63 0.73,1.18 1.55,1.09zm57.16 -0.09c6.74,-1.27 15.13,0 15.22,0 0.73,0.09 1.46,-0.37 1.55,-1.18 0.09,-0.72 -0.36,-1.45 -1.18,-1.54 -0.37,-0.09 -9.03,-1.35 -16.14,0 -7.47,1.45 -10.76,5.61 -10.85,5.79 -0.45,0.63 -0.36,1.45 0.28,1.9 0.27,0.18 0.54,0.27 0.82,0.27 0.45,0 0.82,-0.18 1.09,-0.54 0.09,0 2.83,-3.53 9.21,-4.7zm-21.97 -41.23l2.19 1.17c7.02,3.8 14.4,7.78 21.05,12.21 16.05,10.67 27.26,25.49 35.1,46.56 -0.09,1.99 -0.18,4.07 -0.37,6.15l-0.54 8.41c-0.09,0.72 0.54,1.35 1.27,1.44 0,0 0.09,0 0.09,0 0.73,0 1.28,-0.54 1.37,-1.26l0.55 -8.41c0.18,-2.17 0.27,-4.43 0.36,-6.51 0,0 0,-0.09 0,-0.09 0,-0.09 0,-0.09 0,-0.18 0,-0.09 0,-0.09 0,-0.18 0,0 0,-0.09 0,-0.09 -8.11,-21.79 -19.59,-37.07 -36.28,-48.1 -6.83,-4.52 -14.22,-8.5 -21.33,-12.3l-2.18 -1.17c-0.64,-0.36 -1.46,-0.09 -1.83,0.54 -0.36,0.63 -0.09,1.45 0.55,1.81z"/>
  <path class="fil1" d="M1067.09 234.31c-3.81,-5.85 -7.62,-11.93 -11.65,-22.96 -8.74,-23.86 8.74,-52.89 8.96,-53.12 0.67,-1.12 0.22,-2.47 -0.67,-3.15 -1.12,-0.67 -2.47,-0.22 -3.14,0.68 -0.67,1.35 -18.82,31.06 -9.41,56.94 2.24,6.53 4.7,11.25 6.95,15.31 -5.16,3.82 -27.12,20.25 -39.89,20.25 -13,0 -34.74,-16.2 -39.89,-20.25 2.24,-4.06 4.48,-8.78 6.94,-15.31 9.42,-25.88 -8.51,-55.82 -9.41,-56.94 -0.67,-1.13 -2.02,-1.35 -3.14,-0.68 -1.12,0.68 -1.34,2.03 -0.67,3.15 0.23,0.23 17.48,29.26 8.97,53.12 -4.04,10.8 -7.85,16.88 -11.66,22.96 -4.93,7.65 -9.63,14.85 -13.44,31.28 -1.57,6.76 -1.8,21.61 -1.8,22.29 0,1.35 0.9,2.25 2.24,2.25 1.13,0 2.25,-0.9 2.25,-2.25 0,-0.23 0.22,-15.08 1.56,-21.39 3.81,-15.53 8.3,-22.5 13,-29.93 0.9,-1.58 2.02,-2.93 2.92,-4.5 6.05,4.72 28.01,20.7 42.13,20.7 14.11,0 36.08,-15.98 42.13,-20.7 0.89,1.57 2.01,3.15 2.91,4.5 4.71,7.43 9.19,14.4 13,29.93 1.57,6.08 1.57,21.16 1.57,21.39 0,1.12 1.12,2.25 2.24,2.25 1.34,0 2.24,-1.13 2.24,-2.25 0,-0.68 -0.23,-15.53 -1.79,-22.29 -3.81,-16.2 -8.52,-23.63 -13.45,-31.28z"/>
  <path class="fil1" d="M1018.24 219c1.12,0 1.79,-0.9 1.79,-1.8 0,-0.9 -0.9,-1.8 -1.79,-1.8 -1.12,0 -1.8,0.9 -1.8,1.8 0,0.9 0.68,1.8 1.8,1.8z"/>
  <path class="fil1" d="M1026.3 276.85c-0.67,0.45 -5.15,3.15 -8.06,6.75 -2.92,-3.6 -7.4,-6.3 -8.07,-6.75 -1.12,-0.68 -2.47,-0.23 -3.14,0.67 -0.67,1.13 -0.22,2.48 0.67,3.15 1.8,1.13 7.17,4.96 8.29,8.11 0.23,0.9 1.13,1.57 2.02,1.57 0.9,0 1.8,-0.67 2.02,-1.57 1.12,-3.15 6.27,-6.76 8.29,-8.11 1.12,-0.67 1.35,-2.02 0.67,-3.15 -0.44,-0.9 -1.79,-1.35 -2.69,-0.67z"/>
  <path class="fil1" d="M964.23 202.12l-6.95 6.98c-0.9,0.9 -0.9,2.25 0,3.15 0.45,0.45 1.12,0.68 1.57,0.68 0.67,0 1.12,-0.23 1.57,-0.68l11.88 -11.93c0,0 0.22,-0.22 0.22,-0.45 0.22,-0.22 0.22,-0.45 0.22,-0.9 0,0 0,-0.22 0,-0.22 0,-0.23 0,-0.68 -0.22,-0.9 0,-0.23 0,-0.23 -0.22,-0.45 -0.23,-0.23 -0.45,-0.68 -0.68,-0.9l-12.32 -7.66c-1.12,-0.67 -2.47,-0.22 -3.14,0.68 -0.22,0.45 -0.22,0.67 -0.22,1.12 0,0.68 0.44,1.58 1.12,2.03l7.84 4.73c-11.88,1.57 -24.43,-1.13 -24.65,-1.13 -1.12,-0.22 -2.47,0.45 -2.69,1.8 -0.22,1.13 0.45,2.48 1.79,2.7 0.68,0 12.55,2.7 24.88,1.35z"/>
  <path class="fil1" d="M1098.91 198.07c-0.22,-1.12 -1.57,-2.02 -2.69,-1.8 -0.22,0 -12.55,2.7 -24.65,1.13l7.85 -4.73c0.67,-0.45 1.12,-1.13 1.12,-2.03 0,-0.45 0,-0.9 -0.23,-1.12 -0.67,-1.13 -2.02,-1.35 -3.14,-0.68l-12.77 7.66c-0.45,0.22 -0.67,0.45 -0.9,0.9 0,0 0,0.22 -0.22,0.22 0,0.23 -0.22,0.68 -0.22,0.9 0,0 0,0 0,0.23 0,0.45 0.22,0.67 0.44,0.9 0,0 0.23,0.22 0.23,0.22l11.88 11.93c0.44,0.45 1.12,0.68 1.56,0.68 0.68,0 1.12,-0.23 1.57,-0.68 0.9,-0.9 0.9,-2.25 0,-3.15l-6.94 -6.98c12.32,1.35 24.42,-1.12 25.1,-1.35 1.56,0 2.24,-1.12 2.01,-2.25z"/>
  <path class="fil1" d="M278.69 243.21c-7.66,7.21 -16.76,10.82 -27.28,10.82 -5.87,0 -11.05,-1.01 -15.56,-3.04 -4.51,-2.03 -8.27,-4.74 -11.28,-8.12 -3.01,-3.39 -5.28,-7.29 -6.82,-11.73 -1.54,-4.43 -2.31,-9.06 -2.31,-13.87 0,-5.11 0.81,-9.79 2.42,-14.04 1.62,-4.24 3.89,-7.91 6.82,-10.99 2.93,-3.08 6.41,-5.49 10.43,-7.22 4.03,-1.72 8.4,-2.59 13.14,-2.59 3.23,0 6.18,0.38 8.85,1.13 2.67,0.75 5.04,1.73 7.1,2.93 2.07,1.2 3.76,2.57 5.08,4.11 1.31,1.55 2.23,3.11 2.76,4.68l8.34 0c-1.12,-2.55 -2.57,-4.92 -4.34,-7.1 -1.76,-2.18 -3.96,-4.06 -6.59,-5.64 -2.63,-1.57 -5.72,-2.82 -9.25,-3.72 -3.53,-0.9 -7.55,-1.35 -12.06,-1.35 -6.54,0 -12.5,0.94 -17.87,2.82 -5.38,1.88 -9.98,4.56 -13.82,8.06 -3.83,3.5 -6.8,7.7 -8.91,12.63 -2.1,4.92 -3.15,10.43 -3.15,16.52 0,5.26 0.84,10.39 2.53,15.39 1.7,5 4.31,9.43 7.84,13.3 3.53,3.87 8.04,6.99 13.53,9.36 5.49,2.37 12.03,3.55 19.62,3.55 4.81,0 9.11,-0.45 12.91,-1.35 3.8,-0.9 7.1,-2.01 9.92,-3.33 2.82,-1.31 5.17,-2.72 7.05,-4.22 1.88,-1.51 3.31,-2.82 4.29,-3.95l-3.39 -3.04z"/>
  <path class="fil1" d="M360.77 229.67c0,3.91 -0.67,7.65 -2.03,11.22 -1.35,3.57 -3.28,6.71 -5.8,9.42 -2.52,2.7 -5.56,4.85 -9.14,6.43 -3.57,1.57 -7.57,2.36 -12,2.36 -4.51,0 -8.59,-0.8 -12.24,-2.42 -3.64,-1.62 -6.73,-3.78 -9.24,-6.48 -2.52,-2.71 -4.48,-5.85 -5.87,-9.42 -1.39,-3.57 -2.08,-7.27 -2.08,-11.11 0,-3.9 0.69,-7.64 2.08,-11.21 1.39,-3.57 3.35,-6.71 5.87,-9.42 2.51,-2.7 5.6,-4.87 9.24,-6.48 3.65,-1.62 7.73,-2.43 12.24,-2.43 4.43,0 8.43,0.81 12,2.43 3.58,1.61 6.62,3.78 9.14,6.48 2.52,2.71 4.45,5.85 5.8,9.42 1.36,3.57 2.03,7.31 2.03,11.21zm-10.71 0c0,-5.26 -0.56,-9.52 -1.69,-12.79 -1.13,-3.27 -2.59,-5.81 -4.4,-7.61 -1.8,-1.81 -3.79,-3.03 -5.97,-3.67 -2.18,-0.64 -4.29,-0.96 -6.32,-0.96 -2.03,0 -4.13,0.32 -6.31,0.96 -2.18,0.64 -4.19,1.86 -6.03,3.67 -1.84,1.8 -3.35,4.34 -4.51,7.61 -1.17,3.27 -1.75,7.53 -1.75,12.79 0,5.19 0.58,9.42 1.75,12.69 1.16,3.27 2.67,5.81 4.51,7.61 1.84,1.8 3.85,3.03 6.03,3.67 2.18,0.63 4.28,0.95 6.31,0.95 2.03,0 4.14,-0.32 6.32,-0.95 2.18,-0.64 4.17,-1.87 5.97,-3.67 1.81,-1.8 3.27,-4.34 4.4,-7.61 1.13,-3.27 1.69,-7.5 1.69,-12.69z"/>
  <path class="fil1" d="M423.8 214.23c0,-2.03 -0.52,-3.91 -1.58,-5.64 -1.05,-1.73 -2.5,-3.21 -4.34,-4.46 -1.84,-1.23 -3.98,-2.21 -6.43,-2.93 -2.44,-0.71 -5.05,-1.07 -7.83,-1.07 -2.63,0 -5.1,0.34 -7.39,1.02 -2.29,0.67 -4.28,1.69 -5.97,3.04 -1.7,1.36 -3.03,3.03 -4.01,5.02 -0.97,1.99 -1.46,4.3 -1.46,6.93 0,3.61 0.82,6.47 2.48,8.57 1.65,2.11 3.72,3.8 6.2,5.08 2.48,1.27 5.17,2.31 8.06,3.1 2.9,0.79 5.58,1.65 8.06,2.59 2.48,0.94 4.55,2.13 6.2,3.55 1.66,1.43 2.49,3.39 2.49,5.87 0,1.05 -0.17,2.14 -0.51,3.27 -0.34,1.12 -0.96,2.16 -1.86,3.1 -0.9,0.94 -2.14,1.73 -3.72,2.37 -1.58,0.63 -3.57,0.95 -5.98,0.95 -3.01,0 -5.54,-0.47 -7.61,-1.41 -2.07,-0.94 -3.76,-2.06 -5.07,-3.38 -1.32,-1.31 -2.26,-2.65 -2.82,-4 -0.57,-1.36 -0.85,-2.48 -0.85,-3.38l-7.33 0c0,2.1 0.49,4.15 1.47,6.14 0.98,1.99 2.46,3.78 4.45,5.36 1.99,1.57 4.44,2.84 7.33,3.77 2.9,0.94 6.26,1.41 10.09,1.41 6.92,0 12.12,-1.52 15.62,-4.56 3.49,-3.05 5.24,-7.05 5.24,-12.01 0,-3.61 -0.84,-6.5 -2.54,-8.68 -1.69,-2.18 -3.81,-3.93 -6.37,-5.25 -2.55,-1.31 -5.31,-2.38 -8.28,-3.21 -2.97,-0.83 -5.74,-1.69 -8.29,-2.59 -2.56,-0.91 -4.68,-2 -6.37,-3.27 -1.69,-1.28 -2.54,-3.08 -2.54,-5.42 0,-0.97 0.19,-2.01 0.57,-3.1 0.37,-1.09 1.01,-2.1 1.91,-3.04 0.9,-0.94 2.11,-1.73 3.61,-2.37 1.5,-0.64 3.38,-0.96 5.64,-0.96 2.25,0 4.21,0.32 5.86,0.96 1.66,0.64 3.05,1.43 4.17,2.37 1.13,0.94 1.96,1.97 2.48,3.1 0.53,1.13 0.79,2.18 0.79,3.16l6.43 0z"/>
  <path class="fil1" d="M463.94 257.75l0 -32.13c0,-1.36 0.11,-3.14 0.34,-5.36 0.22,-2.22 0.81,-4.4 1.75,-6.54 0.93,-2.14 2.38,-3.98 4.34,-5.52 1.95,-1.55 4.69,-2.32 8.23,-2.32 2.55,0 4.53,0.57 5.92,1.69 1.39,1.13 2.42,2.52 3.1,4.18 0.67,1.65 1.07,3.38 1.18,5.18 0.11,1.81 0.17,3.39 0.17,4.74l0 36.08 9.58 0 0 -32.13c0,-1.66 0.16,-3.63 0.46,-5.92 0.3,-2.3 0.94,-4.46 1.91,-6.49 0.98,-2.03 2.39,-3.76 4.23,-5.18 1.84,-1.43 4.34,-2.15 7.5,-2.15 2.33,0 4.21,0.34 5.64,1.02 1.43,0.67 2.53,1.69 3.32,3.04 0.79,1.36 1.32,3.01 1.58,4.96 0.27,1.96 0.4,4.21 0.4,6.77l0 36.08 9.58 0 0 -39.35c0,-1.73 -0.19,-3.67 -0.56,-5.81 -0.38,-2.14 -1.19,-4.13 -2.43,-5.97 -1.24,-1.85 -3.04,-3.39 -5.41,-4.63 -2.37,-1.24 -5.51,-1.86 -9.41,-1.86 -1.13,0 -2.45,0.12 -3.95,0.34 -1.5,0.23 -3.08,0.72 -4.74,1.47 -1.65,0.75 -3.25,1.84 -4.79,3.27 -1.54,1.42 -2.87,3.3 -4,5.63l-0.79 0c-0.45,-1.2 -1.09,-2.42 -1.92,-3.66 -0.82,-1.24 -1.88,-2.39 -3.15,-3.44 -1.28,-1.05 -2.8,-1.92 -4.57,-2.59 -1.77,-0.68 -3.89,-1.02 -6.37,-1.02 -1.13,0 -2.48,0.13 -4.06,0.4 -1.58,0.26 -3.16,0.77 -4.74,1.52 -1.57,0.75 -3.06,1.8 -4.45,3.16 -1.39,1.35 -2.54,3.12 -3.44,5.3l-0.45 0 0 -9.14 -9.59 0 0 56.38 9.59 0z"/>
  <path class="fil1" d="M618.63 229.67c0,3.91 -0.67,7.65 -2.03,11.22 -1.35,3.57 -3.29,6.71 -5.8,9.42 -2.52,2.7 -5.57,4.85 -9.14,6.43 -3.57,1.57 -7.57,2.36 -12,2.36 -4.52,0 -8.59,-0.8 -12.24,-2.42 -3.64,-1.62 -6.73,-3.78 -9.25,-6.48 -2.51,-2.71 -4.47,-5.85 -5.86,-9.42 -1.39,-3.57 -2.08,-7.27 -2.08,-11.11 0,-3.9 0.69,-7.64 2.08,-11.21 1.39,-3.57 3.35,-6.71 5.86,-9.42 2.52,-2.7 5.61,-4.87 9.25,-6.48 3.65,-1.62 7.72,-2.43 12.24,-2.43 4.43,0 8.43,0.81 12,2.43 3.57,1.61 6.62,3.78 9.14,6.48 2.51,2.71 4.45,5.85 5.8,9.42 1.36,3.57 2.03,7.31 2.03,11.21zm-10.71 0c0,-5.26 -0.56,-9.52 -1.69,-12.79 -1.13,-3.27 -2.59,-5.81 -4.4,-7.61 -1.8,-1.81 -3.79,-3.03 -5.97,-3.67 -2.18,-0.64 -4.29,-0.96 -6.32,-0.96 -2.03,0 -4.13,0.32 -6.31,0.96 -2.18,0.64 -4.19,1.86 -6.03,3.67 -1.85,1.8 -3.35,4.34 -4.51,7.61 -1.17,3.27 -1.75,7.53 -1.75,12.79 0,5.19 0.58,9.42 1.75,12.69 1.16,3.27 2.66,5.81 4.51,7.61 1.84,1.8 3.85,3.03 6.03,3.67 2.18,0.63 4.28,0.95 6.31,0.95 2.03,0 4.14,-0.32 6.32,-0.95 2.18,-0.64 4.17,-1.87 5.97,-3.67 1.81,-1.8 3.27,-4.34 4.4,-7.61 1.13,-3.27 1.69,-7.5 1.69,-12.69z"/>
  <path class="fil1" d="M640.84 237.79c0.15,3.24 1,6.17 2.54,8.8 1.54,2.63 3.65,4.87 6.31,6.71 2.67,1.84 5.81,3.27 9.42,4.28 3.61,1.02 7.55,1.52 11.84,1.52 4.36,0 8.29,-0.52 11.78,-1.58 3.5,-1.05 6.48,-2.55 8.97,-4.51 2.48,-1.95 4.39,-4.32 5.75,-7.1 1.35,-2.78 2.03,-5.86 2.03,-9.24 0,-4.67 -1.17,-8.48 -3.5,-11.45 -2.33,-2.97 -5.24,-5.45 -8.74,-7.44 -3.49,-1.99 -7.29,-3.67 -11.39,-5.02 -4.09,-1.35 -7.89,-2.78 -11.38,-4.28 -3.5,-1.51 -6.41,-3.24 -8.74,-5.19 -2.33,-1.95 -3.5,-4.55 -3.5,-7.78 0,-1.8 0.4,-3.5 1.19,-5.07 0.79,-1.58 1.95,-2.95 3.49,-4.12 1.54,-1.16 3.44,-2.1 5.69,-2.82 2.26,-0.71 4.85,-1.07 7.78,-1.07 4.89,0 9.04,1.03 12.46,3.1 3.42,2.07 5.43,5.32 6.04,9.75l7.66 0c-0.45,-2.78 -1.46,-5.28 -3.04,-7.49 -1.58,-2.22 -3.57,-4.1 -5.98,-5.64 -2.4,-1.54 -5.13,-2.71 -8.17,-3.5 -3.04,-0.79 -6.22,-1.18 -9.53,-1.18 -3.46,0 -6.75,0.45 -9.87,1.35 -3.12,0.9 -5.86,2.22 -8.23,3.95 -2.36,1.73 -4.24,3.91 -5.63,6.54 -1.39,2.63 -2.09,5.64 -2.09,9.02 0,4.43 1.13,8.01 3.38,10.71 2.26,2.71 5.1,4.96 8.52,6.77 3.42,1.8 7.12,3.34 11.1,4.62 3.99,1.28 7.69,2.72 11.11,4.34 3.42,1.62 6.26,3.59 8.51,5.92 2.26,2.33 3.38,5.45 3.38,9.36 0,4.88 -1.78,8.45 -5.35,10.71 -3.57,2.26 -8.33,3.38 -14.27,3.38 -4.73,0 -8.53,-0.62 -11.38,-1.86 -2.86,-1.24 -5.04,-2.72 -6.54,-4.45 -1.51,-1.73 -2.52,-3.52 -3.05,-5.36 -0.52,-1.84 -0.82,-3.4 -0.9,-4.68l-7.67 0z"/>
  <polygon class="fil1" points="740.4,178.82 730.82,178.82 730.82,257.75 740.4,257.75 "/>
  <path class="fil1" d="M776.71 201.37l0 56.38 9.58 0 0 -56.38 -9.58 0zm-1.36 -17.81c0,1.65 0.61,3.08 1.81,4.28 1.2,1.2 2.63,1.81 4.28,1.81 1.66,0 3.09,-0.61 4.29,-1.81 1.2,-1.2 1.8,-2.63 1.8,-4.28 0,-1.66 -0.6,-3.08 -1.8,-4.29 -1.2,-1.2 -2.63,-1.8 -4.29,-1.8 -1.65,0 -3.08,0.6 -4.28,1.8 -1.2,1.21 -1.81,2.63 -1.81,4.29z"/>
  <path class="fil1" d="M829.81 257.75l0 -32.13c0,-1.36 0.12,-3.14 0.34,-5.36 0.23,-2.22 0.81,-4.4 1.75,-6.54 0.94,-2.14 2.39,-3.98 4.34,-5.52 1.96,-1.55 4.7,-2.32 8.23,-2.32 2.56,0 4.53,0.57 5.92,1.69 1.39,1.13 2.43,2.52 3.1,4.18 0.68,1.65 1.08,3.38 1.19,5.18 0.11,1.81 0.17,3.39 0.17,4.74l0 36.08 9.58 0 0 -32.13c0,-1.66 0.15,-3.63 0.45,-5.92 0.3,-2.3 0.94,-4.46 1.92,-6.49 0.98,-2.03 2.39,-3.76 4.23,-5.18 1.84,-1.43 4.34,-2.15 7.5,-2.15 2.33,0 4.2,0.34 5.63,1.02 1.43,0.67 2.54,1.69 3.33,3.04 0.79,1.36 1.32,3.01 1.58,4.96 0.26,1.96 0.39,4.21 0.39,6.77l0 36.08 9.59 0 0 -39.35c0,-1.73 -0.19,-3.67 -0.57,-5.81 -0.37,-2.14 -1.18,-4.13 -2.42,-5.97 -1.24,-1.85 -3.05,-3.39 -5.41,-4.63 -2.37,-1.24 -5.51,-1.86 -9.42,-1.86 -1.13,0 -2.44,0.12 -3.95,0.34 -1.5,0.23 -3.08,0.72 -4.73,1.47 -1.65,0.75 -3.25,1.84 -4.79,3.27 -1.54,1.42 -2.88,3.3 -4.01,5.63l-0.79 0c-0.45,-1.2 -1.08,-2.42 -1.91,-3.66 -0.83,-1.24 -1.88,-2.39 -3.16,-3.44 -1.28,-1.05 -2.8,-1.92 -4.56,-2.59 -1.77,-0.68 -3.9,-1.02 -6.38,-1.02 -1.12,0 -2.48,0.13 -4.06,0.4 -1.57,0.26 -3.15,0.77 -4.73,1.52 -1.58,0.75 -3.06,1.8 -4.45,3.16 -1.4,1.35 -2.54,3.12 -3.44,5.3l-0.46 0 0 -9.14 -9.58 0 0 56.38 9.58 0z"/>
  <path class="fil1" d="M45.36 365.3c-1.75,0 -3.1,0.65 -4.06,1.97 -0.96,1.31 -1.44,3.15 -1.44,5.5 0,4.89 1.83,7.33 5.5,7.33 1.54,0 3.41,-0.38 5.6,-1.15l0 3.9c-1.8,0.75 -3.81,1.12 -6.03,1.12 -3.19,0 -5.63,-0.96 -7.32,-2.9 -1.69,-1.93 -2.54,-4.71 -2.54,-8.33 0,-2.28 0.42,-4.28 1.25,-6 0.83,-1.71 2.02,-3.03 3.58,-3.94 1.55,-0.92 3.37,-1.37 5.46,-1.37 2.13,0 4.27,0.51 6.42,1.54l-1.5 3.78c-0.82,-0.39 -1.64,-0.73 -2.47,-1.02 -0.83,-0.29 -1.65,-0.43 -2.45,-0.43z"/>
  <polygon class="fil1" points="78.2,366.9 78.2,370.34 72.71,370.34 72.71,383.67 68.14,383.67 68.14,370.34 62.63,370.34 62.63,366.9 "/>
  <path class="fil1" d="M87.99 366.9l5.01 0 3.16 9.44c0.27,0.82 0.46,1.79 0.56,2.91l0.09 0c0.11,-1.03 0.32,-2 0.64,-2.91l3.11 -9.44 4.9 0 -7.09 18.92c-0.65,1.75 -1.58,3.06 -2.78,3.93 -1.21,0.87 -2.62,1.3 -4.23,1.3 -0.79,0 -1.56,-0.08 -2.32,-0.25l0 -3.63c0.55,0.13 1.15,0.19 1.8,0.19 0.81,0 1.52,-0.24 2.12,-0.74 0.61,-0.49 1.08,-1.24 1.42,-2.24l0.27 -0.83 -6.66 -16.65z"/>
  <path class="fil1" d="M127.43 380.33l0 -9.99 -3.44 0c-0.25,1.86 -0.59,3.62 -1.02,5.29 -0.44,1.67 -1.04,3.24 -1.81,4.7l6.27 0zm7.03 9.36l-4.11 0 0 -6.02 -11.28 0 0 6.02 -4.11 0 0 -9.36 1.41 0c0.96,-1.49 1.77,-3.37 2.42,-5.64 0.65,-2.27 1.1,-4.87 1.36,-7.79l11.85 0 0 13.43 2.46 0 0 9.36z"/>
  <path class="fil1" d="M150.82 366.9l0 6.63c0,0.7 -0.12,2.41 -0.35,5.13l7.74 -11.76 5.51 0 0 16.77 -4.43 0 0 -6.69c0,-1.19 0.11,-2.87 0.31,-5.04l-7.72 11.73 -5.49 0 0 -16.77 4.43 0z"/>
  <path class="fil1" d="M180.13 383.67l-4.95 0 4.52 -6.63c-1.08,-0.45 -1.9,-1.1 -2.45,-1.95 -0.56,-0.85 -0.84,-1.85 -0.84,-3 0,-1.62 0.61,-2.89 1.83,-3.81 1.21,-0.92 2.87,-1.38 4.97,-1.38l7.8 0 0 16.77 -4.57 0 0 -6.24 -2.53 0 -3.78 6.24zm0.77 -11.55c0,0.7 0.27,1.25 0.82,1.65 0.55,0.39 1.27,0.59 2.16,0.59l2.56 0 0 -4.23 -3.14 0c-0.75,0 -1.34,0.18 -1.76,0.54 -0.43,0.37 -0.64,0.85 -0.64,1.45z"/>
  <polygon class="fil1" points="232.9,366.9 237.94,366.9 231.29,374.94 238.53,383.67 233.34,383.67 226.48,375.17 226.48,383.67 221.9,383.67 221.9,366.9 226.48,366.9 226.48,375.05 "/>
  <path class="fil1" d="M253.63 375.26c0,1.66 0.28,2.91 0.82,3.76 0.55,0.85 1.43,1.28 2.66,1.28 1.22,0 2.1,-0.42 2.64,-1.27 0.53,-0.84 0.8,-2.1 0.8,-3.77 0,-1.66 -0.27,-2.91 -0.81,-3.74 -0.54,-0.83 -1.43,-1.24 -2.66,-1.24 -1.22,0 -2.1,0.41 -2.64,1.23 -0.54,0.83 -0.81,2.08 -0.81,3.75zm11.6 0c0,2.73 -0.72,4.86 -2.16,6.4 -1.44,1.54 -3.45,2.31 -6.01,2.31 -1.62,0 -3.04,-0.35 -4.27,-1.05 -1.23,-0.71 -2.17,-1.72 -2.83,-3.04 -0.66,-1.32 -0.99,-2.86 -0.99,-4.62 0,-2.74 0.71,-4.87 2.15,-6.39 1.42,-1.52 3.43,-2.28 6.02,-2.28 1.62,0 3.04,0.35 4.27,1.05 1.23,0.7 2.17,1.7 2.83,3.01 0.66,1.31 0.99,2.85 0.99,4.61z"/>
  <path class="fil1" d="M284.89 383.97c-5.23,0 -7.84,-2.86 -7.84,-8.59 0,-2.85 0.71,-5.03 2.13,-6.54 1.42,-1.5 3.46,-2.25 6.11,-2.25 1.94,0 3.68,0.38 5.22,1.14l-1.35 3.54c-0.72,-0.29 -1.39,-0.53 -2.01,-0.72 -0.62,-0.18 -1.24,-0.27 -1.86,-0.27 -2.38,0 -3.57,1.69 -3.57,5.07 0,3.28 1.19,4.92 3.57,4.92 0.88,0 1.7,-0.12 2.45,-0.35 0.75,-0.24 1.5,-0.61 2.25,-1.11l0 3.92c-0.74,0.47 -1.49,0.79 -2.25,0.97 -0.75,0.18 -1.7,0.27 -2.85,0.27z"/>
  <path class="fil1" d="M324.07 383.67l-4.27 0 0 -13.21 -0.24 0.93c-0.54,2.11 -1.03,3.7 -1.46,4.78l-2.97 7.5 -3.25 0 -3.02 -7.56c-0.43,-1.1 -0.89,-2.64 -1.38,-4.63l-0.28 -1.02 0 13.21 -4.27 0 0 -16.77 6.31 0 2.88 7.16c0.3,0.77 0.57,1.65 0.83,2.65 0.25,1 0.43,1.86 0.52,2.57 0.33,-1.5 0.58,-2.58 0.77,-3.23 0.18,-0.66 0.39,-1.26 0.61,-1.81 0.22,-0.55 1.21,-3 2.98,-7.34l6.24 0 0 16.77z"/>
  <path class="fil1" d="M344.88 369.84c-0.97,0 -1.73,0.31 -2.28,0.92 -0.55,0.62 -0.86,1.49 -0.94,2.62l6.42 0c-0.02,-1.13 -0.32,-2 -0.89,-2.62 -0.57,-0.61 -1.34,-0.92 -2.31,-0.92zm0.65 14.13c-2.7,0 -4.81,-0.74 -6.33,-2.23 -1.52,-1.49 -2.28,-3.6 -2.28,-6.33 0,-2.81 0.7,-4.99 2.1,-6.52 1.41,-1.54 3.35,-2.3 5.83,-2.3 2.37,0 4.22,0.67 5.54,2.02 1.32,1.35 1.98,3.22 1.98,5.6l0 2.22 -10.82 0c0.05,1.3 0.44,2.31 1.16,3.04 0.72,0.73 1.73,1.1 3.03,1.1 1.01,0 1.96,-0.11 2.86,-0.32 0.9,-0.21 1.84,-0.54 2.82,-1l0 3.54c-0.8,0.4 -1.65,0.7 -2.56,0.89 -0.91,0.2 -2.02,0.29 -3.33,0.29z"/>
  <polygon class="fil1" points="379.03,366.9 379.03,370.34 373.54,370.34 373.54,383.67 368.96,383.67 368.96,370.34 363.46,370.34 363.46,366.9 "/>
  <path class="fil1" d="M394.86 375.26c0,1.66 0.27,2.91 0.81,3.76 0.55,0.85 1.44,1.28 2.67,1.28 1.22,0 2.09,-0.42 2.63,-1.27 0.53,-0.84 0.8,-2.1 0.8,-3.77 0,-1.66 -0.27,-2.91 -0.81,-3.74 -0.54,-0.83 -1.42,-1.24 -2.65,-1.24 -1.22,0 -2.1,0.41 -2.64,1.23 -0.54,0.83 -0.81,2.08 -0.81,3.75zm11.59 0c0,2.73 -0.72,4.86 -2.16,6.4 -1.44,1.54 -3.44,2.31 -6.01,2.31 -1.61,0 -3.03,-0.35 -4.26,-1.05 -1.23,-0.71 -2.18,-1.72 -2.84,-3.04 -0.66,-1.32 -0.99,-2.86 -0.99,-4.62 0,-2.74 0.72,-4.87 2.15,-6.39 1.43,-1.52 3.44,-2.28 6.03,-2.28 1.61,0 3.03,0.35 4.26,1.05 1.23,0.7 2.17,1.7 2.83,3.01 0.66,1.31 0.99,2.85 0.99,4.61z"/>
  <path class="fil1" d="M434.31 383.67l-4.57 0 0 -13.33 -4.22 0c-0.32,3.75 -0.71,6.55 -1.17,8.39 -0.46,1.85 -1.07,3.18 -1.84,4.01 -0.76,0.82 -1.76,1.23 -3,1.23 -1.06,0 -1.93,-0.16 -2.61,-0.48l0 -3.66c0.49,0.2 0.98,0.3 1.47,0.3 0.57,0 1.04,-0.41 1.43,-1.23 0.38,-0.82 0.73,-2.18 1.03,-4.1 0.31,-1.92 0.57,-4.55 0.79,-7.9l12.69 0 0 16.77z"/>
  <path class="fil1" d="M451.82 375.26c0,1.66 0.27,2.91 0.82,3.76 0.54,0.85 1.43,1.28 2.66,1.28 1.22,0 2.1,-0.42 2.64,-1.27 0.53,-0.84 0.8,-2.1 0.8,-3.77 0,-1.66 -0.27,-2.91 -0.81,-3.74 -0.54,-0.83 -1.43,-1.24 -2.66,-1.24 -1.22,0 -2.1,0.41 -2.64,1.23 -0.54,0.83 -0.81,2.08 -0.81,3.75zm11.6 0c0,2.73 -0.72,4.86 -2.16,6.4 -1.44,1.54 -3.45,2.31 -6.02,2.31 -1.61,0 -3.03,-0.35 -4.26,-1.05 -1.23,-0.71 -2.17,-1.72 -2.83,-3.04 -0.66,-1.32 -0.99,-2.86 -0.99,-4.62 0,-2.74 0.71,-4.87 2.14,-6.39 1.43,-1.52 3.44,-2.28 6.03,-2.28 1.61,0 3.03,0.35 4.26,1.05 1.23,0.7 2.18,1.7 2.84,3.01 0.66,1.31 0.99,2.85 0.99,4.61z"/>
  <polygon class="fil1" points="487.84,366.9 487.84,370.34 480.84,370.34 480.84,383.67 476.26,383.67 476.26,366.9 "/>
  <path class="fil1" d="M504.44 366.9l0 6.63c0,0.7 -0.12,2.41 -0.35,5.13l7.74 -11.76 5.51 0 0 16.77 -4.43 0 0 -6.69c0,-1.19 0.1,-2.87 0.3,-5.04l-7.71 11.73 -5.49 0 0 -16.77 4.43 0z"/>
  <path class="fil1" d="M535.63 366.9l0 6.63c0,0.7 -0.12,2.41 -0.35,5.13l7.74 -11.76 5.51 0 0 16.77 -4.43 0 0 -6.69c0,-1.19 0.11,-2.87 0.3,-5.04l-7.71 11.73 -5.49 0 0 -16.77 4.43 0z"/>
  <path class="fil1" d="M583.86 366.9l0 6.63c0,0.7 -0.11,2.41 -0.34,5.13l7.74 -11.76 5.51 0 0 16.77 -4.43 0 0 -6.69c0,-1.19 0.1,-2.87 0.3,-5.04l-7.71 11.73 -5.49 0 0 -16.77 4.42 0z"/>
  <polygon class="fil1" points="638.67,366.9 643.71,366.9 637.06,374.94 644.29,383.67 639.1,383.67 632.25,375.17 632.25,383.67 627.67,383.67 627.67,366.9 632.25,366.9 632.25,375.05 "/>
  <path class="fil1" d="M659.4 375.26c0,1.66 0.28,2.91 0.82,3.76 0.55,0.85 1.43,1.28 2.66,1.28 1.22,0 2.1,-0.42 2.64,-1.27 0.53,-0.84 0.8,-2.1 0.8,-3.77 0,-1.66 -0.27,-2.91 -0.81,-3.74 -0.54,-0.83 -1.43,-1.24 -2.66,-1.24 -1.22,0 -2.1,0.41 -2.64,1.23 -0.54,0.83 -0.81,2.08 -0.81,3.75zm11.6 0c0,2.73 -0.72,4.86 -2.16,6.4 -1.44,1.54 -3.45,2.31 -6.02,2.31 -1.61,0 -3.03,-0.35 -4.26,-1.05 -1.23,-0.71 -2.17,-1.72 -2.83,-3.04 -0.66,-1.32 -0.99,-2.86 -0.99,-4.62 0,-2.74 0.71,-4.87 2.14,-6.39 1.43,-1.52 3.44,-2.28 6.03,-2.28 1.61,0 3.03,0.35 4.26,1.05 1.23,0.7 2.18,1.7 2.84,3.01 0.66,1.31 0.99,2.85 0.99,4.61z"/>
  <path class="fil1" d="M693.05 383.97c-1.97,0 -3.51,-0.71 -4.63,-2.14l-0.24 0c0.16,1.4 0.24,2.21 0.24,2.43l0 6.79 -4.58 0 0 -24.15 3.72 0 0.65 2.18 0.21 0c1.07,-1.66 2.65,-2.49 4.75,-2.49 1.98,0 3.54,0.76 4.65,2.29 1.13,1.53 1.69,3.66 1.69,6.38 0,1.79 -0.27,3.34 -0.79,4.66 -0.53,1.32 -1.28,2.33 -2.25,3.02 -0.97,0.69 -2.11,1.03 -3.42,1.03zm-1.35 -13.72c-1.13,0 -1.95,0.34 -2.47,1.04 -0.52,0.7 -0.79,1.84 -0.81,3.44l0 0.5c0,1.8 0.27,3.09 0.8,3.87 0.54,0.78 1.38,1.17 2.54,1.17 2.05,0 3.08,-1.69 3.08,-5.07 0,-1.65 -0.25,-2.89 -0.76,-3.71 -0.5,-0.83 -1.3,-1.24 -2.38,-1.24z"/>
  <path class="fil1" d="M721.56 383.97c-1.97,0 -3.52,-0.71 -4.64,-2.14l-0.24 0c0.16,1.4 0.24,2.21 0.24,2.43l0 6.79 -4.57 0 0 -24.15 3.72 0 0.64 2.18 0.21 0c1.08,-1.66 2.66,-2.49 4.76,-2.49 1.98,0 3.53,0.76 4.65,2.29 1.12,1.53 1.68,3.66 1.68,6.38 0,1.79 -0.26,3.34 -0.79,4.66 -0.52,1.32 -1.27,2.33 -2.24,3.02 -0.97,0.69 -2.11,1.03 -3.42,1.03zm-1.35 -13.72c-1.13,0 -1.95,0.34 -2.48,1.04 -0.52,0.7 -0.79,1.84 -0.81,3.44l0 0.5c0,1.8 0.27,3.09 0.81,3.87 0.53,0.78 1.38,1.17 2.54,1.17 2.05,0 3.08,-1.69 3.08,-5.07 0,-1.65 -0.26,-2.89 -0.76,-3.71 -0.51,-0.83 -1.3,-1.24 -2.38,-1.24z"/>
  <path class="fil1" d="M747.8 369.84c-0.97,0 -1.73,0.31 -2.28,0.92 -0.55,0.62 -0.86,1.49 -0.94,2.62l6.42 0c-0.02,-1.13 -0.32,-2 -0.89,-2.62 -0.57,-0.61 -1.34,-0.92 -2.31,-0.92zm0.65 14.13c-2.7,0 -4.81,-0.74 -6.33,-2.23 -1.53,-1.49 -2.29,-3.6 -2.29,-6.33 0,-2.81 0.71,-4.99 2.11,-6.52 1.41,-1.54 3.35,-2.3 5.83,-2.3 2.37,0 4.22,0.67 5.54,2.02 1.32,1.35 1.98,3.22 1.98,5.6l0 2.22 -10.82 0c0.05,1.3 0.44,2.31 1.16,3.04 0.72,0.73 1.73,1.1 3.02,1.1 1.02,0 1.97,-0.11 2.87,-0.32 0.9,-0.21 1.84,-0.54 2.82,-1l0 3.54c-0.8,0.4 -1.65,0.7 -2.57,0.89 -0.9,0.2 -2.01,0.29 -3.32,0.29z"/>
  <polygon class="fil1" points="779.07,366.9 784.11,366.9 777.46,374.94 784.69,383.67 779.5,383.67 772.64,375.17 772.64,383.67 768.07,383.67 768.07,366.9 772.64,366.9 772.64,375.05 "/>
  <polygon class="fil1" points="812.01,380.33 814.46,380.33 814.46,389.69 810.35,389.69 810.35,383.67 796.15,383.67 796.15,366.9 800.73,366.9 800.73,380.24 807.42,380.24 807.42,366.9 812.01,366.9 "/>
  <path class="fil1" d="M830.78 366.9l0 6.63c0,0.7 -0.11,2.41 -0.34,5.13l7.74 -11.76 5.5 0 0 16.77 -4.42 0 0 -6.69c0,-1.19 0.1,-2.87 0.3,-5.04l-7.71 11.73 -5.49 0 0 -16.77 4.42 0z"/>
  <path class="fil1" d="M861.97 366.9l0 6.63c0,0.7 -0.11,2.41 -0.34,5.13l7.74 -11.76 5.5 0 0 16.77 -4.42 0 0 -6.69c0,-1.19 0.1,-2.87 0.3,-5.04l-7.71 11.73 -5.49 0 0 -16.77 4.42 0z"/>
  <path class="fil1" d="M918.04 366.81c2.8,0.23 4.99,1.1 6.58,2.6 1.59,1.5 2.39,3.46 2.39,5.88 0,2.47 -0.79,4.45 -2.36,5.93 -1.57,1.49 -3.77,2.34 -6.61,2.57l0 7.26 -4.25 0 0 -7.26c-2.83,-0.26 -5.04,-1.14 -6.64,-2.66 -1.59,-1.51 -2.39,-3.46 -2.39,-5.84 0,-2.53 0.77,-4.53 2.31,-6 1.54,-1.46 3.78,-2.29 6.72,-2.48l0 -6.48 4.25 0 0 6.48zm-8.57 8.48c0,1.41 0.39,2.56 1.16,3.44 0.77,0.89 1.82,1.42 3.16,1.6l0 -10.08c-1.29,0.17 -2.33,0.71 -3.13,1.63 -0.79,0.92 -1.19,2.06 -1.19,3.41zm12.84 0c0,-1.32 -0.37,-2.43 -1.12,-3.34 -0.75,-0.9 -1.8,-1.45 -3.15,-1.64l0 10.02c1.33,-0.18 2.37,-0.72 3.13,-1.61 0.76,-0.89 1.14,-2.03 1.14,-3.43z"/>
  <path class="fil1" d="M944.28 366.9l0 6.63c0,0.7 -0.12,2.41 -0.35,5.13l7.74 -11.76 5.51 0 0 16.77 -4.43 0 0 -6.69c0,-1.19 0.1,-2.87 0.3,-5.04l-7.71 11.73 -5.49 0 0 -16.77 4.43 0z"/>
  <polygon class="fil1" points="982.62,366.9 982.62,370.34 975.62,370.34 975.62,383.67 971.04,383.67 971.04,366.9 "/>
  <path class="fil1" d="M992.39 366.9l5.01 0 3.17 9.44c0.27,0.82 0.45,1.79 0.55,2.91l0.09 0c0.11,-1.03 0.33,-2 0.65,-2.91l3.1 -9.44 4.91 0 -7.1 18.92c-0.65,1.75 -1.57,3.06 -2.78,3.93 -1.2,0.87 -2.61,1.3 -4.22,1.3 -0.79,0 -1.57,-0.08 -2.33,-0.25l0 -3.63c0.55,0.13 1.15,0.19 1.8,0.19 0.81,0 1.52,-0.24 2.13,-0.74 0.6,-0.49 1.07,-1.24 1.41,-2.24l0.27 -0.83 -6.66 -16.65z"/>
  <path class="fil1" d="M1030.54 383.97c-1.97,0 -3.51,-0.71 -4.63,-2.14l-0.24 0c0.16,1.4 0.24,2.21 0.24,2.43l0 6.79 -4.58 0 0 -24.15 3.72 0 0.65 2.18 0.21 0c1.07,-1.66 2.65,-2.49 4.75,-2.49 1.98,0 3.54,0.76 4.65,2.29 1.12,1.53 1.68,3.66 1.68,6.38 0,1.79 -0.26,3.34 -0.78,4.66 -0.53,1.32 -1.28,2.33 -2.25,3.02 -0.97,0.69 -2.11,1.03 -3.42,1.03zm-1.35 -13.72c-1.13,0 -1.95,0.34 -2.47,1.04 -0.52,0.7 -0.79,1.84 -0.81,3.44l0 0.5c0,1.8 0.27,3.09 0.8,3.87 0.54,0.78 1.38,1.17 2.54,1.17 2.05,0 3.08,-1.69 3.08,-5.07 0,-1.65 -0.25,-2.89 -0.76,-3.71 -0.5,-0.83 -1.3,-1.24 -2.38,-1.24z"/>
  <path class="fil1" d="M1054.41 373.38l2.21 0c2.56,0 4.46,0.41 5.69,1.23 1.23,0.82 1.84,2.06 1.84,3.72 0,1.77 -0.61,3.11 -1.84,4 -1.23,0.9 -3.08,1.34 -5.53,1.34l-6.94 0 0 -16.77 4.57 0 0 6.48zm5.16 5.01c0,-0.65 -0.26,-1.12 -0.78,-1.41 -0.52,-0.29 -1.29,-0.43 -2.32,-0.43l-2.06 0 0 3.96 2.12 0c2.03,0 3.04,-0.71 3.04,-2.12zm11.59 5.28l-4.58 0 0 -16.77 4.58 0 0 16.77z"/>
 </g>
</svg>
